<?xml version="1.0" standalone="no"?>
<!DOCTYPE svg PUBLIC "-//W3C//DTD SVG 1.1//EN" "http://www.w3.org/Graphics/SVG/1.1/DTD/svg11.dtd" >
<svg xmlns="http://www.w3.org/2000/svg">
<metadata>
<json>
<![CDATA[
{
	"fontFamily": "font-mgp",
	"majorVersion": 1,
	"minorVersion": 41,
	"copyright": "MoneyGuidePro",
	"fontURL": "http://moneyguidepro.com",
	"description": "Icons for global use in MoneyGuide Pro\nFont generated by IcoMoon.",
	"designer": "Nate Thompson",
	"version": "Version 1.41",
	"fontId": "font-mgp",
	"psName": "font-mgp",
	"subFamily": "Regular",
	"fullName": "font-mgp"
}
]]>
</json>
</metadata>
<defs>
<font id="font-mgp" horiz-adv-x="1024">
<font-face units-per-em="1024" ascent="960" descent="-64" />
<missing-glyph horiz-adv-x="1024" />
<glyph unicode="&#x20;" horiz-adv-x="512" d="" />
<glyph unicode="&#xe600;" glyph-name="live-logo" data-tags="Live Logo" horiz-adv-x="1502" d="M281.821 345.287c0 6.438 0 16.81 0 23.244v76.531c0 6.438-4.29 8.94-10.013 5.726l-66.518-38.621c-5.364-3.216-14.663-8.585-20.025-11.805l-66.518-38.266c-5.364-3.216-5.364-8.585 0-11.805l66.518-38.266c5.364-3.216 14.663-8.585 20.025-11.805l66.518-38.266c5.364-3.216 10.013-0.713 10.013 5.726v77.603zM281.821 558.793c0 6.438 0 16.81 0 23.244v76.531c0 6.438-4.29 8.94-10.013 5.726l-66.518-38.621c-5.364-3.216-14.663-8.585-20.025-11.805l-66.518-38.266c-5.364-3.216-5.364-8.585 0-11.805l66.155-37.555c5.364-3.216 14.663-8.585 20.025-11.805l66.518-38.266c5.364-3.216 10.013-0.713 10.013 5.726l0.361 76.886zM17.173 475.108c0-6.438 0-16.81 0-23.244v-91.913c0-6.438 4.29-8.94 10.013-5.726l79.745 45.773c5.364 3.216 14.663 8.585 20.025 11.805l79.745 46.129c5.364 3.216 5.364 8.585 0 11.805l-79.745 45.773c-5.364 3.216-14.663 8.585-20.025 11.805l-79.745 45.773c-5.364 3.216-10.013 0.713-10.013-5.726 0 0 0-92.26 0-92.26zM1364.354 592.763v60.795h-21.816v10.013h56.508v-10.013h-21.816v-61.156h-12.871zM1411.201 592.763v70.805h19.314l20.025-52.216 19.669 52.216h19.314v-71.168h-12.516v59.010l-22.528-58.652h-8.585l-22.528 58.652v-58.652h-12.16zM329.746 666.441h52.571v-356.909h209.21l-7.866-46.129h-253.912v403.039zM640.154 666.441h52.571v-56.863h-52.571v56.863zM641.952 554.86h48.994v-292.182h-48.994v292.182zM734.22 554.86h56.863l87.261-237.106 88.69 237.106h54l-117.306-292.182h-52.571l-116.943 292.182zM1307.492 344.929c-4.654-27.89-17.521-50.068-37.555-66.518-20.025-16.092-48.994-24.318-86.544-24.318-44.345 0-78.315 13.589-101.924 40.776-23.602 26.816-35.4 64.377-35.4 112.655 0 25.388 3.58 47.566 10.013 67.229 6.793 19.669 16.092 36.126 28.608 48.994 12.16 13.226 26.816 23.244 43.626 30.401 16.81 6.793 35.4 10.377 55.438 10.377 22.528 0 42.197-3.58 58.292-10.732s29.682-16.81 39.702-29.682c10.377-12.516 17.877-27.534 23.244-45.063 5.009-17.521 7.511-36.474 7.511-56.863v-25.033h-217.075c0-14.663 2.142-28.608 6.082-40.776 3.58-12.516 9.658-23.244 16.81-32.904 7.511-8.94 16.447-16.447 27.534-21.816s23.244-7.866 37.91-7.866c24.318 0 42.197 4.654 54 13.945 11.45 8.94 18.951 21.816 23.244 37.555h47.202l-0.713-0.361zM1263.147 433.627c0 13.945-1.435 26.461-4.29 37.91-3.216 11.45-7.511 20.743-14.3 28.964-6.438 8.23-14.663 14.663-25.033 18.951-10.013 4.29-22.528 6.793-36.474 6.793-25.743 0-46.129-7.866-60.795-23.602s-23.244-38.984-25.743-69.021h166.651z" />
<glyph unicode="&#xe601;" glyph-name="triangle-logo" data-tags="Money Guide Pro Triangle Icons" horiz-adv-x="611" d="M641.889 149.933c0 22.527 0 59.695 0 82.221v171.202c0 22.527-15.768 31.538-36.042 20.275l-147.549-85.6c-19.148-11.263-51.81-30.411-72.085-41.674l-147.549-85.6c-19.148-11.263-19.148-30.411 0-41.674l147.549-83.348c19.148-11.263 51.81-30.411 72.085-41.674l147.549-85.6c19.148-11.263 36.042-2.252 36.042 20.275v171.202zM641.889 691.698c0 22.527 0 59.695 0 82.221v172.328c0 22.527-15.768 31.538-36.042 20.275l-147.549-85.6c-19.148-11.263-51.81-30.411-72.085-41.674l-148.675-85.6c-19.148-11.263-19.148-30.411 0-41.674l148.675-84.474c19.148-11.263 51.81-30.411 72.085-41.674l147.549-85.6c19.148-11.263 36.042-2.252 36.042 20.275v171.202zM-30.529 503.601c0-22.527 0-59.695 0-82.221v-209.497c0-22.527 15.768-31.538 36.042-20.275l181.339 104.748c19.148 11.263 51.81 30.411 72.085 41.674l181.339 104.748c19.148 11.263 19.148 30.411 0 41.674l-181.339 104.748c-19.148 11.263-51.81 30.411-72.085 41.674l-181.339 102.496c-19.148 11.263-36.042 2.252-36.042-20.275v-209.497z" />
<glyph unicode="&#xe602;" glyph-name="pro-logo" data-tags="Money Guide Pro logo" horiz-adv-x="1494" d="M1299.774 605.65v74.681h-26.697v12.27h68.907v-12.27h-26.697v-74.681h-15.512zM1357.141 605.65v87.308h23.813l24.534-64.218 23.813 64.218h23.813v-86.948h-15.155v71.797l-27.419-71.797h-10.462l-27.419 71.797v-71.797l-15.512-0.359zM369.695 657.965h51.948v-44.737c12.991 17.681 27.781 31.028 45.098 40.406 16.956 9.021 37.159 13.712 60.249 13.712 22.369 0 41.492-3.969 58.084-12.27 16.956-8.3 30.304-19.124 41.848-33.551 10.822-14.434 19.124-31.749 24.89-51.592 5.412-19.845 8.3-42.214 8.3-66.384 0-25.976-3.244-49.064-9.741-69.629-6.493-20.926-15.876-38.242-27.781-53.034-12.27-14.434-26.697-25.614-43.656-33.551s-37.521-11.548-58.805-11.548c-17.681 0-34.993 3.609-52.313 10.462-16.956 6.856-32.47 19.48-46.54 37.884v-155.857h-52.671v429.684h1.084zM422.005 492.729c0-20.202 2.167-37.159 6.856-51.592s10.822-26.336 19.124-35.358c8.3-9.021 17.681-16.234 28.861-20.202 11.183-4.33 23.813-6.493 36.8-6.493s24.89 2.167 35.714 6.856c10.822 4.33 20.566 11.548 28.503 21.287 8.3 9.741 14.434 22.727 19.124 38.242 4.687 15.876 6.856 34.993 6.856 57.362 0 23.091-2.523 42.214-7.579 57.727s-11.548 27.781-19.48 37.159c-8.3 9.021-17.317 15.876-27.419 19.845-10.462 3.969-20.926 5.772-31.749 5.772-13.712 0-26.336-2.167-38.242-6.856-11.548-4.687-22.008-11.548-30.304-20.566-8.656-9.021-15.155-20.566-20.202-34.637-5.051-13.712-7.214-29.946-7.214-48.343v-20.926h0.359v0.722zM730.833 657.965h51.948v-48.343c11.904 17.317 25.614 30.304 41.127 39.684 15.876 9.021 32.47 13.712 50.149 13.712 10.822 0 20.202-0.722 27.781-2.167l-6.856-49.064c-3.969 0.722-8.3 1.445-12.27 1.805s-8.3 0.722-13.347 0.722c-9.741 0-19.48-1.805-29.582-5.051-10.1-3.609-19.48-9.021-28.503-17.317-9.021-7.579-15.876-16.234-20.926-26.336s-7.579-22.008-7.579-34.993v-185.076h-52.671l0.722 312.433zM1072.849 335.789c-23.813 0-45.098 3.609-63.138 11.548-18.403 7.579-34.272 18.403-47.262 32.47s-22.727 31.388-29.582 51.948-10.462 43.656-10.462 68.907c0 25.614 3.609 48.343 10.822 68.907s17.681 38.242 31.028 52.671c13.347 14.434 29.582 25.614 48.343 33.551 18.759 7.579 39.684 11.904 62.417 11.904 23.091 0 44.377-3.609 62.773-11.548 18.403-7.579 34.272-18.759 47.622-32.83 12.991-14.434 23.091-31.388 29.946-51.592s10.462-42.935 10.462-68.183c0-25.976-3.609-49.064-10.462-69.629s-16.956-38.242-30.304-52.671c-12.991-14.434-29.226-25.614-48.343-33.551-19.48-7.935-40.771-11.904-63.859-11.904zM1073.206 379.082c16.956 0 31.028 2.888 43.293 9.021 12.27 5.772 22.008 14.434 29.582 25.614 7.579 10.822 13.712 23.813 16.956 38.963 3.609 15.155 5.412 31.749 5.412 49.785 0 17.681-1.805 33.915-5.412 49.064s-9.021 27.781-16.956 38.242c-7.579 10.462-17.681 19.124-29.582 24.89-12.27 5.772-26.336 9.021-43.293 9.021s-31.028-2.888-42.935-9.021c-11.904-5.772-21.648-14.434-29.582-24.89-7.579-10.462-13.712-23.091-16.956-38.242-3.609-15.155-5.412-31.388-5.412-49.427s1.805-34.637 5.412-49.427c3.609-15.155 9.021-27.781 16.956-38.606 7.579-10.822 17.317-19.124 29.582-25.614 11.904-6.134 26.336-9.378 42.935-9.378zM315.213 307.651c0 11.183 0 29.582 0 40.406v66.019c0 11.183-8.3 15.876-17.681 10.1l-57.362-32.83c-9.741-5.412-25.614-14.434-34.993-20.566l-57.362-32.83c-9.741-5.412-9.741-14.434 0-20.566l57.362-32.83c9.741-5.412 25.614-14.434 34.993-20.566l57.362-33.193c9.741-5.412 17.681-1.084 17.681 10.1v66.743zM315.213 535.665c0 11.183 0 29.582 0 40.406v66.384c0 11.183-8.3 15.876-17.681 10.1l-57.362-32.83c-9.741-5.412-25.614-14.434-34.993-20.566l-57.362-32.83c-9.741-5.412-9.741-14.434 0-20.566l57.362-33.193c9.741-5.412 25.614-14.434 34.993-20.566l57.362-33.193c9.741-5.412 17.681-1.084 17.681 10.1v66.743zM32.726 462.419c0-11.183 0-29.582 0-40.406v-82.622c0-11.183 8.3-15.876 17.681-10.1l71.074 41.127c9.741 5.412 25.614 14.434 34.993 20.566l71.433 40.771c9.741 5.412 9.741 14.434 0 20.566l-71.074 41.492c-9.741 5.412-25.614 14.434-34.993 20.566l-71.433 40.771c-10.1 5.412-17.681 1.084-17.681-10.462 0 0 0-82.257 0-82.257z" />
<glyph unicode="&#xe603;" glyph-name="mcmeter" data-tags="Monte Carlo Meter" horiz-adv-x="1280" d="M825.619 552.696l-182.777-46.451c-0.758 0-1.258 0-2.019 0-158.794 0-287.544-128.747-287.544-287.544 0-19.436 2.019-38.625 5.555-57.055h40.897c-3.283 15.906-4.796 32.561-4.796 49.48 0 137.84 110.574 249.677 247.154 249.677s247.154-111.836 247.154-249.677c0-16.664-1.518-33.072-4.796-48.723h38.119c3.539 18.177 5.555 36.859 5.555 56.295 0 67.407-23.226 129.259-61.851 178.228l-40.646 155.764zM737.259 819.030l-19.691-152.733c108.304-20.196 203.479-78.262 270.884-160.056l118.148 97.952c-91.64 111.080-221.403 189.341-369.34 214.839zM632.741 674.123c12.874 0 25.499-0.507 38.121-1.518 1.768-0.252 3.539-0.252 5.301-0.507l19.691 152.477c-20.703 2.272-41.907 3.283-63.369 3.283-339.301 0-614.474-275.174-614.474-614.474 0-38.625 3.539-76.494 10.351-113.1l150.968 30.295c-4.798 27.009-7.322 54.529-7.322 82.805 0 254.471 206.257 460.728 460.728 460.728zM1132.098 571.374l-118.658-98.455c50.49-73.974 80.028-163.338 80.028-259.528 0-29.535-2.777-58.064-8.080-86.088l151.218-28.276c6.817 36.859 10.603 74.98 10.603 114.11 0 133.804-42.668 257.503-115.119 358.23z" />
<glyph unicode="&#xe604;" glyph-name="pin" data-tags="pin, thumbtack" d="M244.429 190.106l-107.776-166.4 11.469-54.426 54.272 11.622 107.725 166.298c-11.469 6.144-22.835 12.698-33.843 19.968-11.162 7.219-21.811 14.95-31.846 22.938zM700.723 248.218c0.717 1.485 1.178 3.123 1.843 4.71 2.714 5.99 5.12 11.981 7.066 18.278 0.307 1.126 0.461 2.253 0.819 3.277 1.997 6.963 3.686 13.824 5.018 20.89 0 0.358 0 0.614 0 1.075 9.984 59.853-7.424 126.618-47.258 186.931l56.832 87.757c65.485-8.346 122.112 8.141 149.35 50.278 47.258 72.858-10.24 194.15-128.256 271.002-118.118 76.902-252.058 80.128-299.213 7.373-27.341-42.189-19.354-100.71 15.002-157.338l-56.934-87.757c-71.117 11.93-139.059 0.819-189.594-32.768-0.307-0.102-0.666-0.205-0.87-0.41-5.888-3.994-11.622-8.397-16.998-13.005-0.87-0.717-1.894-1.382-2.611-2.099-5.018-4.301-9.523-9.114-13.875-13.926-1.024-1.229-2.458-2.304-3.43-3.584-5.427-6.195-10.445-12.749-14.848-19.712-70.861-109.21-10.394-274.483 134.81-369.101 145.306-94.618 320.512-82.637 391.219 26.573 4.454 6.912 8.55 14.131 11.93 21.555zM658.995 758.067c-45.414 29.542-67.584 76.134-49.408 104.243 18.125 28.006 69.683 26.726 114.995-2.816 45.517-29.542 67.482-76.237 49.408-104.243s-69.53-26.726-114.995 2.816z" />
<glyph unicode="&#xe605;" glyph-name="new" data-tags="new" horiz-adv-x="922" d="M905.728 340.787l-88.422 78.746c-25.6 22.784-25.6 60.109 0 82.893l88.422 78.797c25.6 22.784 18.79 43.981-15.155 47.309l-117.248 11.11c-33.894 3.174-52.224 32.41-40.499 64.819l62.208 173.21c11.674 32.512-2.611 44.288-31.693 26.317l-138.291-85.504c-29.082-18.125-66.714-8.192-83.507 21.811l-50.074 89.395c-16.845 30.106-44.646 30.208-61.798 0.41l-46.541-80.896c-17.254-29.952-56.73-42.65-87.706-28.467l-81.92 37.581c-31.13 14.336-54.938-2.15-53.094-36.659l4.403-82.688c1.894-34.509-23.603-69.99-56.525-78.899l-79.104-21.197c-32.87-8.909-38.912-34.816-13.312-57.6l88.422-78.797c25.6-22.784 25.6-60.109 0-82.893l-88.422-78.797c-25.6-22.784-18.842-44.902 15.002-48.998l107.264-13.005c33.843-4.096 52.685-34.304 41.882-67.123l-54.989-166.81c-10.803-32.819 4.608-45.517 34.202-28.416l126.106 73.011c29.594 17.101 69.427 7.68 88.525-20.89l52.326-78.797c19.046-28.621 47.667-27.085 63.488 3.482l46.029 88.73c15.872 30.618 53.862 43.11 84.378 27.802l88.781-44.39c30.618-15.206 54.118 0.512 52.275 34.918l-4.454 82.79c-1.792 34.509 23.603 69.888 56.627 78.797l79.002 21.299c32.973 8.909 39.014 34.816 13.414 57.6zM512 256h-102.4v102.4h102.4v-102.4zM512 409.6h-102.4v256h102.4v-256z" />
<glyph unicode="&#xe606;" glyph-name="easel" data-tags="easel blackboard" d="M129.997-51.2h177.203l71.987 189.338-151.859 51.405-97.331-240.742zM644.813 138.138l71.987-189.338h177.203l-97.331 240.742-151.859-51.405zM921.6 870.4h-332.8l-25.6 102.4h-102.4l-25.6-102.4h-332.8c-28.314 0-51.2-22.886-51.2-51.2v-563.2c0-28.262 22.886-51.2 51.2-51.2h819.2c28.314 0 51.2 22.938 51.2 51.2v563.2c0 28.262-22.886 51.2-51.2 51.2z" />
<glyph unicode="&#xe607;" glyph-name="bucket" data-tags="bucket" d="M563.2 921.6c-251.29 0-409.498-81.51-398.848-151.040 3.072-19.917 11.52-99.584 22.221-167.578-123.136-47.821-163.942-125.389-158.464-188.621 6.502-74.803 73.779-154.88 221.594-168.704 84.378-7.885 185.907 38.4 251.699 117.504-6.246 10.598-9.882 23.040-9.882 36.198 0 39.629 32.102 71.68 71.68 71.68 39.629 0 71.68-32.102 71.68-71.68 0-39.014-31.232-70.707-70.093-71.578-78.285-101.018-197.53-161.997-310.477-154.88 2.611-16.589 3.584-48.486 4.915-56.986 4.608-29.645 120.166-115.712 303.974-115.917 183.808 0.205 299.366 86.272 304.026 115.866 4.506 29.542 84.019 584.141 94.822 654.694 10.65 69.53-147.61 151.040-398.848 151.040zM99.482 420.608c-2.816 32.922 23.296 76.698 98.509 109.517 10.803-68.608 22.579-143.206 32.922-208.589-82.125 16.026-127.898 58.829-131.43 99.072zM563.2 664.371c-183.808 0.102-314.214 68.301-314.214 93.798-0.102 25.293 130.406 91.648 314.214 91.546 183.808 0.102 314.317-66.253 314.214-91.546 0-25.498-130.406-93.696-314.214-93.798z" />
<glyph unicode="&#xe608;" glyph-name="documents" data-tags="documents" d="M993.178 593.152l-381.133 102.195-66.714 248.883c-5.581 20.787-27.904 32.87-49.818 27.085l-464.691-124.518c-21.914-5.837-35.123-27.546-29.542-48.333l165.376-617.011c5.581-20.787 27.853-32.922 49.715-26.982l184.986 49.51-25.19-94.106c-5.581-20.787 7.629-42.496 29.542-48.282l415.232-111.309c21.914-5.888 44.134 6.195 49.766 27.085l152.064 567.501c5.53 20.787-7.68 42.496-29.594 48.282zM83.61 786.893l400.896 107.315 148.378-553.882-400.896-107.315-148.378 553.882zM802.714 27.494l-348.877 95.386 27.443 102.502 199.731 53.606c21.914 5.786 35.226 27.494 29.594 48.282l-77.21 288.102 304.486-83.507-135.168-504.371z" />
<glyph unicode="&#xe609;" glyph-name="tools2" data-tags="tools" d="M160.512 620.032c47.77 37.12 87.398 11.52 140.288-49.715 5.939-6.912 13.926 1.178 18.483 5.12 4.506 3.994 74.291 66.816 77.722 69.683 3.379 3.021 7.475 8.653 2.099 14.95-5.478 6.298-25.293 32-38.042 48.691-92.57 121.088 253.235 203.213 200.141 204.493-27.034 0.717-135.475 1.997-151.706 0.205-65.69-6.912-148.173-68.301-189.696-96.922-54.323-37.171-74.598-58.982-77.926-62.003-15.36-13.414-2.458-44.39-30.31-68.813-29.44-25.754-47.821-6.246-64.87-21.197-8.448-7.475-32.102-25.19-38.861-31.078-6.81-5.99-8.038-16.077-1.075-24.115 0 0 64.717-71.475 70.144-77.824 5.376-6.246 20.019-11.674 29.030-3.635 9.062 7.987 32.358 28.314 36.25 31.898 3.994 3.379-2.56 44.083 18.33 60.262zM452.762 593.562c-6.144 7.117-13.773 7.322-20.326 1.485l-73.421-64.102c-5.786-5.12-6.605-14.49-1.382-20.48l424.653-483.277c9.933-11.418 27.136-12.595 38.451-2.714l49.664 41.626c11.366 9.984 12.544 27.29 2.662 38.81l-420.301 488.653zM1018.982 799.232c-3.789 25.293-16.896 20.019-23.706 9.318-6.81-10.803-36.915-56.422-49.306-77.107-12.288-20.48-42.598-60.979-99.021-20.992-58.778 41.523-38.349 70.502-28.109 90.010 10.291 19.61 41.882 74.598 46.438 81.408 4.557 6.912-0.768 26.982-18.995 18.586-18.278-8.397-129.178-52.48-144.538-115.712-15.718-64.307 13.158-121.805-43.52-178.893l-68.762-71.68 69.069-80.179 84.685 80.384c20.173 20.275 63.283 39.987 102.298 31.078 83.61-18.893 129.229 12.493 156.723 64.41 24.678 46.387 20.582 144.077 16.742 169.37zM140.237 99.686c-10.65-10.701-10.65-28.109 0-38.81l48.691-47.616c10.65-10.701 27.546-6.195 38.195 4.506l251.238 246.989-76.954 87.757-261.171-252.826z" />
<glyph unicode="&#xe60a;" glyph-name="money-funds" data-tags="money, funds" d="M462.235 211.979h99.528v49.765h49.765c27.371 0 49.765 22.395 49.765 49.765v149.293c0 27.371-22.395 49.765-49.765 49.765h-149.293v49.765h199.057v99.528h-99.528v49.765h-99.528v-49.765h-49.765c-27.371 0-49.765-22.395-49.765-49.765v-149.293c0-27.371 22.395-49.765 49.765-49.765h149.293v-49.765h-199.057v-99.528h99.528v-49.765zM910.114 858.914h-796.229c-54.989 0-99.032-44.54-99.032-99.528l-0.498-597.172c0-54.989 44.54-99.528 99.528-99.528h796.229c54.989 0 99.528 44.54 99.528 99.528v597.172c0 54.989-44.54 99.528-99.528 99.528zM910.114 162.214h-796.229v597.172h796.229v-597.172z" />
<glyph unicode="&#xe60b;" glyph-name="users" data-tags="users, group, team, people, members" d="M1006.421 121.173c-62.251 143.317-206.549 226.56-311.296 262.144 64.171 52.437 102.059 151.339 102.059 280.875 0 172.16-143.915 217.685-220.032 217.685-12.245 0-26.325-1.365-41.173-4.053-40.875 36.736-94.933 52.309-137.941 52.309-79.531 0-197.845-52.139-197.845-195.712 0-114.261 33.365-201.771 89.984-248.875-89.088-23.296-210.432-80.811-272.597-223.957l-17.579-40.491 41.088-16.213c3.669-1.451 54.187-20.821 130.645-37.931-8.747-14.848-16.981-29.824-23.936-45.781l-17.621-40.491 41.088-16.213c7.595-2.944 187.776-73.003 405.845-73.003s398.251 70.059 405.845 73.003l41.045 16.213-17.579 40.491zM711.851 664.149c0-146.389-51.627-237.312-134.699-237.312s-134.699 90.923-134.699 237.312c0 124.587 112.427 132.096 134.485 132.352 22.485-0.256 134.912-7.765 134.912-132.352zM398.037 844.8c4.309 0 21.376-0.725 40.875-7.040-45.653-32.853-81.792-87.296-81.792-173.611 0-46.891 5.077-89.685 14.421-127.829-62.805 20.011-86.016 111.573-86.016 198.101 0 103.723 93.952 110.165 112.512 110.379zM398.037 416.171c0.512 0 12.373-0.256 30.976-2.645 18.603-22.955 40.491-40.704 65.152-52.864-67.157-13.44-162.816-45.525-240.384-122.24-55.893 9.003-103.765 21.077-135.893 30.72 91.605 144.213 271.957 146.987 280.149 147.029zM577.109 76.8c-139.776 0-280.192 32-344.363 51.797 10.112 29.312 42.069 68.053 53.163 81.365 119.168 115.413 289.451 117.845 291.072 117.845 0.341 0 31.104-0.469 74.88-9.216 76.032-19.2 194.133-89.387 254.891-189.909-64.128-19.797-189.653-51.883-329.643-51.883z" />
<glyph unicode="&#xe60c;" glyph-name="users2" data-tags="users, group, team, people, members" d="M640 359.979c0 0-263.765 0-362.667-230.827 0 0 165.163-65.92 362.667-65.92s362.667 65.92 362.667 65.92c-98.901 230.827-362.667 230.827-362.667 230.827zM640 392.875c98.901 0 164.821 98.901 164.821 263.808s-164.821 164.864-164.821 164.864-164.821 0-164.821-164.864 65.92-263.808 164.821-263.808zM320 505.387c32.512 0 60.416 13.483 82.56 37.76-8.192 33.152-12.715 71.040-12.715 113.536 0 63.36 24.363 102.229 54.357 126.208-32.683 75.307-124.203 75.477-124.203 75.477s-135.765 0-135.765-135.765c0-135.765 54.315-217.216 135.765-217.216zM448 398.976l-4.608 53.675c-66.475 25.429-123.392 25.6-123.392 25.6s-217.216 0-298.667-190.080c0 0 105.003-41.856 240.853-52.053 118.315 123.861 185.813 162.859 185.813 162.859z" />
<glyph unicode="&#xe60d;" glyph-name="user" data-tags="user, profile, avatar, member" d="M1010.176 119.893c-71.552 171.008-209.664 250.581-316.715 287.531 47.787 65.579 73.941 161.792 74.965 279.467 1.749 198.656-162.048 252.629-248.875 253.355-86.869 0.768-251.563-50.347-253.355-249.003-1.024-117.632 23.467-214.229 70.059-280.704-107.648-34.987-247.253-112.299-321.707-281.941l-17.621-40.021 40.491-16.64c8.832-3.541 218.709-88.32 473.685-90.539 255.019-2.261 466.347 78.805 475.264 82.219l40.747 15.872-16.939 40.405zM518.528 854.912c17.024-0.341 165.973-7.595 164.565-167.296-1.109-127.829-35.883-225.024-95.232-266.709l-73.429-51.541-72.363 52.779c-58.667 42.752-91.691 140.544-90.539 268.373 1.408 159.744 150.485 164.352 166.997 164.395zM511.872 66.688c-172.629 1.493-326.315 44.672-398.549 68.565 78.080 136.747 210.389 190.165 311.979 210.645l89.131 17.963 88.789-19.456c101.248-22.315 232.619-78.037 308.352-216.064-72.491-22.699-226.56-63.189-399.701-61.653z" />
<glyph unicode="&#xe60e;" glyph-name="user2" data-tags="user, profile, avatar, member" d="M512 332.8c0 0-341.333 0-469.333-298.667 0 0 213.76-85.333 469.333-85.333s469.333 85.333 469.333 85.333c-128 298.667-469.333 298.667-469.333 298.667zM512 375.467c128 0 213.333 128 213.333 341.333s-213.333 213.333-213.333 213.333-213.333 0-213.333-213.333 85.333-341.333 213.333-341.333z" />
<glyph unicode="&#xe60f;" glyph-name="equals" data-tags="equals" d="M768 674.133h-512c-47.104 0-85.333-38.229-85.333-85.333s38.229-85.333 85.333-85.333h512c47.104 0 85.333 38.229 85.333 85.333s-38.229 85.333-85.333 85.333zM768 375.467h-512c-47.104 0-85.333-38.229-85.333-85.333s38.229-85.333 85.333-85.333h512c47.104 0 85.333 38.229 85.333 85.333s-38.229 85.333-85.333 85.333z" />
<glyph unicode="&#xe610;" glyph-name="piggy-bank" data-tags="pig, money, bank" d="M789.568 271.712c0 0 106.56 72.896 106.56 216.672 0 214.016-226.816 293.152-348.768 291.040-121.984-2.144-158.336-34.24-158.336-34.24s-41.504 30.176-85.504 55.456c-33.664 13.12-41.472 15.008-64.864 7.488-18.72 0-6.944-31.168 0.576-42.4 7.456-11.232 43.712-73.28 43.712-73.28s-76.096-78.368-81.728-129.888c0 0.928-35.84 0.288-55.488 0.288s-17.792-21.408-17.792-21.408l0.544-150.848c0 0-1.216-21.408 16.608-21.408 17.792 0 55.616-0.416 55.616-0.416s53.216-77.28 86.944-91.328c0-0.928-29.152-80.096-29.152-80.096s-14.048-24.352 11.232-33.728c25.28-9.344 91.232-37.024 119.328-45.472 28.064-8.416 32.096 10.688 32.096 10.688l27.808 60.064 181.92-0.288 27.808-61.92c0 0 5.344-28.736 42.784-12.832 37.472 15.904 78.368 34.784 109.28 50.688 30.88 15.904 10.56 45.632 10.56 45.632l-31.744 61.536zM298.304 532.352c-17.056 0-30.88 13.856-30.88 30.912s13.824 30.88 30.88 30.88 30.912-13.824 30.912-30.88-13.856-30.912-30.912-30.912zM733.6 628.608c-9.856-11.68-16.288-3.072-24.224-0.736 0 0-33.632 31.2-83.040 45.76-51.168 15.040-105.024 7.776-105.024 7.776-7.936 2.336-17.568 2.592-17.632 14.848 0.416 15.136 18.784 15.264 18.56 15.776 0 0 60.608 5.6 111.328-9.312 49.888-14.656 88-46.528 88-46.528s20.384-14.048 12.032-27.584z" />
<glyph unicode="&#xe611;" glyph-name="safe" data-tags="safe, money" d="M864 44.8l-63.968 1.984v-65.984h-96v64h-382.016l-1.984-64h-96v62.016l-64.032 1.984c-35.328 0-64 28.672-64 64v768c0 35.328 28.672 64 64 64h704c35.328 0 64-28.672 64-64v-768c0-35.328-28.672-64-64-64zM832 844.8h-640v-126.656l-31.328 0.64v-98.656h31.328v-253.344h-32v-97.984h32v-128h640v704zM800 172.8h-576v96h32v97.984h-32v254.016h32l0.672 97.344h-32.672v94.656h576v-640zM465.984 634.816c-70.688 0-128-57.312-128-128s57.312-128 128-128c70.72 0 128 57.312 128 128s-57.28 128-128 128zM752 604.224c0 17.696-14.304 32-32 32-17.664 0-32-14.304-32-32 0-11.712 6.624-21.536 16-27.104v-169.248c-9.376-5.568-16-15.36-16-27.104 0-17.664 14.336-32 32-32 17.696 0 32 14.336 32 32 0 12.608-7.424 23.232-17.984 28.448v166.56c10.56 5.248 17.984 15.872 17.984 28.448zM464 452.8c-26.496 0-48 21.504-48 48 0 26.528 21.504 48 48 48 26.528 0 48-21.472 48-48 0-26.496-21.472-48-48-48z" />
<glyph unicode="&#xe612;" glyph-name="dollars" data-tags="dollar, bill, money, stack" horiz-adv-x="1216" d="M1152.064 236.48l1.824 546.848-993.6-0.608-0.032 62.72h1055.744v-608.992l-63.936 0.032zM1119.84 140.256l-63.904 0.064 1.824 546.848-993.6-0.64-0.032 62.72h1055.744v-608.992zM1025.696 76.16h-1025.696v576.96h1025.696v-576.96zM961.568 591.008h-897.472v-450.752h897.44v450.752zM865.44 188.32c0-5.664 1.408-10.944 3.232-16h-355.84c88.512 0 160.288 86.080 160.288 192.32s-71.776 192.32-160.288 192.32h355.808c-1.824-5.056-3.232-10.336-3.232-16.032 0-26.56 21.504-48.064 48.064-48.064 5.696 0 10.976 1.408 16.032 3.232v-262.88c-5.056 1.792-10.336 3.232-16.032 3.232-26.528-0.032-48.032-21.568-48.032-48.128zM801.312 431.392c-26.56 0-48.064-28.672-48.064-64.096s21.504-64.096 48.064-64.096 48.064 28.672 48.064 64.096-21.504 64.096-48.064 64.096zM579.936 480.192c0.48-0.928 0.864-2.176 1.184-3.712 0.352-1.536 0.576-3.488 0.672-5.824 0.16-2.336 0.224-5.248 0.224-8.736 0-3.872-0.096-7.168-0.288-9.824-0.224-2.688-0.576-4.896-0.992-6.624-0.512-1.76-1.152-3.040-1.984-3.808-0.864-0.8-2.048-1.216-3.52-1.216s-3.776 0.928-7.008 2.784c-3.232 1.888-7.168 3.872-11.808 6.048s-10.080 4.192-16.224 5.984-12.864 2.688-20.224 2.688c-5.76 0-10.752-0.672-15.008-2.080-4.288-1.408-7.872-3.328-10.72-5.792-2.88-2.464-5.024-5.44-6.4-8.864-1.408-3.456-2.112-7.136-2.112-10.976 0-5.76 1.568-10.72 4.704-14.944 3.136-4.192 7.328-7.936 12.64-11.2 5.28-3.296 11.264-6.336 17.92-9.216s13.472-5.92 20.416-9.088c6.944-3.232 13.76-6.848 20.448-10.944 6.688-4.064 12.64-8.928 17.824-14.592 5.216-5.696 9.44-12.352 12.64-20.032s4.8-16.704 4.8-27.136c0-13.6-2.56-25.568-7.616-35.808-5.056-10.272-11.936-18.88-20.64-25.76s-18.816-12.032-30.432-15.488c-1.472-0.448-3.072-0.64-4.576-0.992v-35.008h-31.52v30.88c-0.416 0-0.768-0.096-1.184-0.096-8.928 0-17.248 0.736-24.928 2.176-7.68 1.472-14.464 3.232-20.32 5.248-5.888 2.048-10.784 4.224-14.72 6.464-3.968 2.24-6.784 4.224-8.512 5.952s-2.976 4.224-3.712 7.488-1.12 8-1.12 14.144c0 4.128 0.128 7.616 0.416 10.4 0.256 2.816 0.704 5.088 1.312 6.848 0.608 1.728 1.408 2.976 2.4 3.712 0.992 0.704 2.176 1.088 3.488 1.088 1.888 0 4.512-1.088 7.936-3.328 3.392-2.176 7.776-4.64 13.12-7.296s11.712-5.088 19.136-7.296c7.392-2.208 16-3.328 25.728-3.328 6.4 0 12.16 0.768 17.216 2.304 5.088 1.536 9.376 3.712 12.928 6.496 3.52 2.816 6.208 6.304 8.096 10.432 1.888 4.16 2.816 8.768 2.816 13.856 0 5.888-1.632 10.944-4.8 15.136-3.2 4.224-7.36 7.936-12.512 11.232-5.152 3.264-10.976 6.336-17.504 9.184-6.56 2.88-13.28 5.92-20.224 9.12s-13.696 6.848-20.224 10.912c-6.528 4.064-12.384 8.928-17.504 14.624-5.12 5.664-9.312 12.384-12.512 20.096-3.2 7.744-4.8 17.024-4.8 27.84 0 12.416 2.304 23.328 6.912 32.704 4.608 9.408 10.816 17.216 18.624 23.424 7.808 6.176 17.024 10.848 27.616 13.92 5.44 1.568 11.072 2.72 16.864 3.488v33.12h31.52v-33.12c1.248-0.16 2.496-0.096 3.744-0.288 6.144-0.928 11.904-2.176 17.248-3.776 5.312-1.6 10.048-3.36 14.176-5.376 4.16-1.984 6.88-3.616 8.256-4.96 1.248-1.184 2.144-2.304 2.624-3.264zM352.576 364.64c0-106.208 71.744-192.32 160.256-192.32h-355.808c1.792 5.056 3.232 10.336 3.232 16 0 26.56-21.536 48.096-48.064 48.096-5.696 0-10.976-1.44-16.032-3.232v262.88c5.056-1.824 10.336-3.232 16.032-3.232 26.56 0 48.064 21.504 48.064 48.064 0 5.696-1.44 10.976-3.232 16.032h355.808c-88.512 0.032-160.256-86.080-160.256-192.288zM224.352 431.392c-26.56 0-48.064-28.672-48.064-64.096s21.536-64.096 48.064-64.096c26.56 0 48.064 28.672 48.064 64.096s-21.504 64.096-48.064 64.096z" />
<glyph unicode="&#xe613;" glyph-name="dollar2" data-tags="dollar, bill, money" d="M0 172.8v576h1024v-576h-1024zM64 686.784v-449.984h896v449.984h-896zM672 460.8c0 106.016-71.616 192-160 192h416v-384h-416c88.384 0 160 85.984 160 192zM800 396.8c26.496 0 48 28.672 48 64s-21.504 64-48 64-48-28.672-48-64 21.504-64 48-64zM579.776 541.504c-0.48-1.76-1.152-3.008-1.984-3.808-0.864-0.8-2.016-1.184-3.488-1.184s-3.776 0.896-7.008 2.752c-3.2 1.888-7.136 3.872-11.776 6.048-4.672 2.176-10.048 4.16-16.192 5.984-6.144 1.792-12.864 2.656-20.192 2.656-5.76 0-10.752-0.672-15.008-2.080-4.256-1.376-7.84-3.328-10.688-5.76-2.88-2.464-4.992-5.44-6.4-8.864-1.376-3.424-2.080-7.104-2.080-10.944 0-5.76 1.568-10.72 4.704-14.912s7.328-7.936 12.608-11.2c5.28-3.296 11.232-6.336 17.92-9.184 6.624-2.88 13.44-5.92 20.384-9.088 6.944-3.232 13.728-6.848 20.384-10.912 6.688-4.064 12.64-8.928 17.824-14.592s9.376-12.32 12.608-19.968c3.2-7.68 4.768-16.672 4.768-27.104 0-13.6-2.496-25.504-7.552-35.776-5.088-10.24-11.936-18.816-20.64-25.664-8.672-6.88-18.784-12.032-30.368-15.488-1.472-0.448-3.072-0.64-4.576-0.992v-34.944h-31.456v30.816c-0.416 0-0.768-0.064-1.152-0.064-8.928 0-17.248 0.704-24.896 2.144-7.68 1.472-14.432 3.232-20.288 5.248-5.888 2.048-10.752 4.192-14.688 6.432s-6.752 4.224-8.48 5.952c-1.728 1.728-2.976 4.224-3.712 7.488-0.736 3.296-1.12 7.968-1.12 14.112 0 4.128 0.128 7.584 0.416 10.4s0.704 5.056 1.312 6.816 1.376 2.976 2.4 3.712c0.992 0.704 2.144 1.088 3.488 1.088 1.856 0 4.48-1.088 7.904-3.296 3.392-2.208 7.776-4.64 13.088-7.296 5.344-2.688 11.68-5.088 19.104-7.328 7.392-2.176 15.968-3.296 25.696-3.296 6.4 0 12.128 0.768 17.184 2.304s9.376 3.68 12.896 6.496 6.208 6.272 8.096 10.4c1.888 4.16 2.816 8.736 2.816 13.856 0 5.856-1.632 10.88-4.8 15.104-3.2 4.192-7.36 7.904-12.512 11.2-5.12 3.264-10.944 6.304-17.472 9.184s-13.248 5.92-20.192 9.088c-6.912 3.2-13.664 6.816-20.192 10.912-6.528 4.064-12.352 8.896-17.472 14.56s-9.312 12.384-12.48 20.096c-3.2 7.712-4.8 16.992-4.8 27.776 0 12.416 2.304 23.296 6.88 32.672 4.608 9.376 10.784 17.184 18.592 23.36s16.992 10.816 27.584 13.888c5.44 1.6 11.072 2.72 16.832 3.488v33.088h31.456v-33.088c1.248-0.16 2.496-0.096 3.744-0.288 6.112-0.928 11.872-2.176 17.184-3.776 5.344-1.568 10.048-3.328 14.208-5.344 4.128-1.984 6.848-3.616 8.192-4.96 1.344-1.312 2.208-2.432 2.72-3.36 0.448-0.928 0.832-2.176 1.184-3.712 0.32-1.536 0.576-3.456 0.672-5.824 0.128-2.304 0.192-5.216 0.192-8.672 0-3.872-0.096-7.168-0.288-9.856-0.288-2.528-0.608-4.768-1.088-6.496zM352 460.8c0-106.016 71.616-192 160-192h-416v384h416c-88.384 0-160-85.984-160-192zM224 524.8c-26.528 0-48-28.672-48-64s21.472-64 48-64c26.496 0 48 28.672 48 64s-21.504 64-48 64z" />
<glyph unicode="&#xe614;" glyph-name="moneybag" data-tags="money bag, sack dollar, bag" d="M448.544 675.136h125.888v47.232h-125.888v-47.232zM573.504 659.424h-124.96c0 0-205.6-202.656-205.6-401.344 0-210.528 215.424-227.264 215.424-227.264s64.256-10.656 104.224 0c0 0 218.432 25.6 218.432 226.24 0.032 200.704-207.52 402.368-207.52 402.368zM582.752 232.864c-5.056-10.24-11.872-18.816-20.576-25.664-8.672-6.88-18.816-12.032-30.368-15.488-1.472-0.448-3.072-0.608-4.576-0.992v-34.944h-31.456v30.848c-0.384-0.032-0.768-0.096-1.152-0.096-8.928 0-17.216 0.704-24.896 2.144-7.648 1.472-14.4 3.232-20.288 5.248-5.888 2.048-10.784 4.192-14.688 6.432-3.936 2.24-6.784 4.224-8.512 5.952-1.76 1.728-2.976 4.224-3.712 7.488-0.704 3.296-1.088 7.968-1.088 14.112 0 4.128 0.128 7.584 0.416 10.4s0.672 5.056 1.312 6.816c0.608 1.76 1.376 2.976 2.368 3.712 0.992 0.704 2.176 1.088 3.488 1.088 1.888 0 4.512-1.088 7.904-3.296s7.744-4.64 13.088-7.296c5.344-2.688 11.68-5.088 19.104-7.328 7.392-2.176 15.968-3.296 25.696-3.296 6.4 0 12.128 0.768 17.184 2.304s9.376 3.68 12.896 6.496c3.552 2.816 6.24 6.272 8.096 10.4 1.888 4.16 2.816 8.736 2.816 13.856 0 5.856-1.632 10.88-4.8 15.104-3.2 4.192-7.392 7.904-12.512 11.2-5.12 3.264-10.944 6.304-17.472 9.184s-13.28 5.92-20.192 9.088c-6.944 3.2-13.664 6.816-20.192 10.912-6.528 4.064-12.384 8.896-17.504 14.56s-9.28 12.384-12.512 20.096c-3.2 7.712-4.768 16.992-4.768 27.776 0 12.416 2.304 23.296 6.88 32.672 4.608 9.376 10.816 17.184 18.592 23.36 7.808 6.176 16.992 10.816 27.584 13.888 5.44 1.568 11.072 2.72 16.832 3.456v33.12h31.456v-33.088c1.28-0.16 2.528-0.096 3.776-0.288 6.112-0.928 11.872-2.176 17.184-3.776 5.312-1.568 10.048-3.36 14.176-5.344s6.88-3.616 8.192-4.96c1.376-1.312 2.24-2.432 2.752-3.36 0.448-0.928 0.8-2.176 1.184-3.712 0.32-1.536 0.576-3.456 0.672-5.824 0.128-2.304 0.192-5.216 0.192-8.672 0-3.872-0.128-7.168-0.32-9.856-0.192-2.656-0.512-4.864-0.992-6.592-0.448-1.76-1.12-3.008-1.984-3.808s-1.984-1.184-3.488-1.184c-1.44 0-3.808 0.896-7.008 2.752-3.2 1.888-7.136 3.872-11.744 6.048-4.672 2.176-10.048 4.16-16.192 5.984-6.176 1.792-12.896 2.656-20.192 2.656-5.76 0-10.752-0.672-15.008-2.080-4.288-1.376-7.84-3.328-10.72-5.76-2.848-2.464-4.992-5.44-6.368-8.864-1.408-3.424-2.080-7.104-2.080-10.944 0-5.76 1.568-10.72 4.672-14.912s7.328-7.936 12.608-11.2c5.248-3.296 11.232-6.336 17.92-9.184 6.656-2.88 13.44-5.92 20.384-9.088 6.944-3.232 13.696-6.848 20.384-10.912s12.64-8.928 17.824-14.592 9.376-12.32 12.576-19.968c3.2-7.68 4.8-16.672 4.8-27.104-0.032-13.504-2.592-25.408-7.648-35.68zM572.512 738.112l63.936 157.408c0 0-40.32-33.472-63.936-33.472s-61.024 32.48-61.024 32.48-40.32-32.48-63.936-32.48c-23.584 0-61.984 31.488-61.984 31.488l64.928-155.424h122.016z" />
<glyph unicode="&#xe615;" glyph-name="coins" data-tags="coins, money" d="M912 236.8h-391.872c11.488 19.808 20.288 41.28 26.112 64h365.76c17.696 0 32-14.304 32-32 0-17.664-14.304-32-32-32zM912 332.8h-359.552c1.312 10.496 2.208 21.152 2.208 32 0 10.88-0.896 21.504-2.208 32h359.552c17.696 0 32-14.304 32-32 0-17.664-14.304-32-32-32zM912 428.8h-365.76c-5.856 22.72-14.624 44.192-26.112 64h391.872c17.696 0 32-14.304 32-32 0-17.664-14.304-32-32-32zM912 524.8h-413.696c-20.8 25.952-46.496 47.776-75.808 64h489.504c17.696 0 32-14.304 32-32 0-17.664-14.304-32-32-32zM912 620.8h-512c-17.696 0-32 14.336-32 32 0 17.696 14.304 32 32 32h512c17.696 0 32-14.304 32-32 0-17.664-14.304-32-32-32zM912 716.8h-512c-17.696 0-32 14.336-32 32 0 17.696 14.304 32 32 32h512c17.696 0 32-14.304 32-32 0-17.664-14.304-32-32-32zM528 364.8c0-123.712-100.32-224-224-224-123.712 0-224 100.288-224 224s100.288 224 224 224c123.68 0 224-100.288 224-224zM383.296 340.448c-3.232 7.648-7.392 14.304-12.608 19.968s-11.136 10.528-17.792 14.592c-6.656 4.064-13.44 7.68-20.384 10.912-6.944 3.2-13.728 6.208-20.384 9.088-6.656 2.848-12.64 5.92-17.888 9.184-5.28 3.264-9.472 7.008-12.608 11.2s-4.704 9.152-4.704 14.912c0 3.84 0.704 7.488 2.080 10.944 1.408 3.424 3.52 6.4 6.4 8.864 2.848 2.432 6.432 4.384 10.688 5.76 4.256 1.408 9.28 2.080 15.008 2.080 7.328 0 14.048-0.864 20.192-2.656 6.112-1.824 11.52-3.776 16.192-5.984 4.672-2.176 8.608-4.192 11.808-6.048s5.536-2.752 7.008-2.752 2.624 0.384 3.488 1.184c0.832 0.8 1.536 2.048 1.984 3.808 0.48 1.728 0.768 3.936 0.992 6.592 0.192 2.688 0.288 5.984 0.288 9.856 0 3.456-0.064 6.368-0.192 8.672-0.128 2.336-0.384 4.288-0.672 5.824-0.352 1.536-0.736 2.784-1.184 3.712-0.512 0.928-1.376 2.048-2.72 3.36-1.344 1.344-4.064 3.008-8.192 4.96-4.128 1.984-8.864 3.776-14.176 5.344-5.344 1.6-11.072 2.848-17.184 3.776-1.248 0.192-2.528 0.128-3.776 0.288v33.088h-31.488v-33.088c-5.792-0.768-11.392-1.92-16.832-3.488-10.592-3.072-19.776-7.68-27.584-13.888s-14.016-14.016-18.592-23.36c-4.608-9.408-6.88-20.288-6.88-32.672 0-10.784 1.6-20.064 4.768-27.776 3.2-7.712 7.36-14.432 12.512-20.096s10.944-10.496 17.472-14.56c6.528-4.096 13.28-7.712 20.192-10.912 6.944-3.2 13.664-6.208 20.192-9.088s12.352-5.952 17.472-9.184c5.152-3.296 9.312-7.008 12.512-11.2 3.2-4.224 4.8-9.248 4.8-15.104 0-5.088-0.928-9.696-2.784-13.856-1.888-4.128-4.576-7.584-8.096-10.4s-7.808-4.96-12.864-6.496c-5.088-1.536-10.784-2.304-17.216-2.304-9.728 0-18.304 1.088-25.696 3.296s-13.76 4.64-19.104 7.328c-5.344 2.656-9.696 5.056-13.088 7.296-3.392 2.176-6.016 3.296-7.904 3.296-1.344 0-2.528-0.384-3.488-1.088-1.024-0.736-1.824-1.984-2.4-3.712-0.608-1.76-1.024-4-1.312-6.816s-0.416-6.272-0.416-10.4c0-6.144 0.384-10.848 1.088-14.112 0.736-3.296 1.984-5.792 3.712-7.488 1.728-1.728 4.544-3.68 8.48-5.952s8.832-4.384 14.688-6.432c5.856-2.016 12.64-3.776 20.288-5.248 7.648-1.44 15.968-2.144 24.896-2.144 0.384 0 0.736 0.064 1.152 0.064v-30.816h31.456v34.944c1.504 0.384 3.104 0.576 4.576 0.992 11.584 3.456 21.728 8.64 30.4 15.488s15.52 15.392 20.608 25.664c5.056 10.272 7.552 22.176 7.552 35.776 0.032 10.336-1.568 19.328-4.736 27.008zM498.304 204.8h413.696c17.696 0 32-14.304 32-32 0-17.664-14.304-32-32-32h-489.504c29.312 16.224 55.008 38.048 75.808 64z" />
<glyph unicode="&#xe616;" glyph-name="dollar-vertical" data-tags="banknote, check, bill, money, cash" d="M1005.28 634.048l-320 320c-15.872 15.872-38.88 22.24-60.672 16.864-11.488-2.816-21.76-8.736-29.888-16.864-7.264-7.264-12.736-16.256-15.872-26.304-14.496-47.008-39.552-87.872-76.64-124.928-49.536-49.504-114.048-87.008-182.304-126.656-72.448-41.984-147.296-85.504-208.64-146.816-52.128-52.192-87.616-110.24-108.416-177.632-7.008-22.752-0.896-47.36 15.872-64.192l320-320c15.872-15.872 38.88-22.24 60.672-16.864 11.488 2.88 21.76 8.736 29.888 16.864 7.264 7.264 12.736 16.256 15.872 26.368 14.528 47.008 39.584 87.872 76.704 124.928 49.504 49.504 113.984 86.944 182.304 126.56 72.384 42.048 147.264 85.568 208.576 146.88 52.128 52.128 87.616 110.24 108.448 177.632 6.976 22.72 0.832 47.424-15.904 64.16zM384 12.8c-105.984 105.984-214.016 214.048-320 320 90.944 294.432 485.12 281.568 576 576 105.984-105.952 214.048-214.016 320.064-320-90.976-294.368-485.152-281.568-576.064-576zM625.984 496c-10.432 8.736-20.928 14.688-31.488 17.632-10.496 2.944-20.992 4.128-31.616 3.36-10.496-0.8-21.248-3.2-32-7.328-10.752-4.192-21.568-8.736-32.448-14.016-17.184 19.744-34.368 39.264-51.552 57.376 7.744 7.008 15.264 10.56 22.496 10.816 7.264 0.32 14.24-0.448 20.864-2.112 6.752-1.696 12.928-3.136 18.624-4.256 5.76-1.12 10.752 0.128 15.136 3.808 4.64 4 7.2 9.184 7.552 15.424 0.32 6.304-2.048 12.448-7.328 18.432-6.752 7.744-14.88 12.448-24.64 14.176-9.632 1.696-19.488 1.568-29.76-0.672-10.112-2.304-19.744-6.112-28.864-11.488s-16.448-10.88-21.888-16.256c-2.080 1.984-4.16 3.936-6.24 5.888-2.304 2.112-5.184 3.264-8.64 3.2-3.488 0-6.368-1.504-8.736-4.256-2.304-2.688-3.36-5.824-2.944-9.12 0.32-3.424 1.696-6.048 4.064-8.064 2.080-1.76 4.16-3.488 6.24-5.312-8.192-9.888-14.944-20.8-20.256-32.32-5.376-11.552-8.576-23.008-9.76-34.112-1.248-11.2-0.064-21.44 3.36-30.944 3.424-9.568 9.76-17.696 19.008-25.376 15.072-12.512 32.8-17.824 53.376-16.64 20.512 1.248 42.624 7.36 66.4 20.128 18.88-21.824 37.824-43.488 56.736-63.616-8-6.752-15.008-10.624-21.184-11.872-6.176-1.312-11.68-1.184-16.672 0.32-4.992 1.568-9.632 3.808-13.888 6.688-4.256 2.944-8.448 5.44-12.64 7.488-4.128 2.048-8.384 3.2-12.736 3.264s-8.992-2.048-14.112-6.432c-5.248-4.576-7.872-9.888-7.872-15.872 0-5.952 2.752-12 8.128-18.112 5.44-6.112 12.512-11.264 21.056-15.328s18.208-6.624 28.832-7.328c10.624-0.736 21.824 0.864 33.632 5.248 11.872 4.32 23.616 12.128 35.2 23.744 5.568-5.44 11.2-10.624 16.8-15.616 2.368-2.048 5.248-3.072 8.736-2.816 3.36 0.128 6.304 1.696 8.64 4.512 2.368 2.88 3.36 6.048 3.008 9.376-0.32 3.36-1.696 5.952-4 7.808-5.632 4.512-11.264 9.248-16.864 14.24 9.568 11.744 17.248 24.128 22.944 36.384 5.696 12.32 9.056 24.192 10.176 35.2 1.12 11.072-0.192 21.056-3.808 30.112-3.584 9.184-9.952 17.056-19.072 24.64zM447.072 474.304c-9.056-0.384-16.96 2.624-23.872 9.312-2.944 2.816-4.992 6.24-6.24 10.304-1.312 4.064-1.76 8.512-1.248 13.376 0.448 4.8 1.888 9.824 4.384 14.88 2.368 5.056 5.888 10.112 10.368 15.008 16.224-16.128 32.416-33.824 48.64-52.128-12.288-6.752-22.976-10.368-32.032-10.752zM598.016 410.24c-2.88-5.312-6.176-10.048-10.048-14.176-17.952 18.112-35.872 38.016-53.76 58.432 4.576 2.048 9.376 4.192 14.56 6.368s10.368 3.616 15.552 4.512c5.312 0.8 10.56 0.576 15.808-0.672 5.184-1.312 10.112-4.128 14.688-8.576 4.512-4.512 7.36-9.184 8.512-14.24 1.248-5.12 1.312-10.304 0.448-15.616-0.928-5.344-2.816-10.656-5.76-16.032zM470.944 263.040c6.304 5.088 15.584 4.832 21.376-1.056 6.272-6.24 6.272-16.448 0-22.688-0.512-0.512-1.056-0.864-1.632-1.312l0.064-0.064c-20.256-15.392-36.896-29.248-54.848-47.2-16.224-16.192-30.88-33.248-43.552-50.56l-20.448-28c-0.64-1.152-1.408-2.208-2.368-3.2-6.272-6.24-16.48-6.24-22.72 0-5.44 5.44-6.112 13.824-2.112 20.064l-0.064 0.064 21.888 29.888c13.664 18.688 29.376 36.992 46.752 54.368 18.080 18.144 37.6 34.336 57.6 49.696h0.064zM588.096 725.92c16.192 16.192 30.816 33.184 43.52 50.592l21.248 29.12c0.768 1.376 1.632 2.752 2.816 3.936 6.304 6.304 16.512 6.304 22.816 0 5.984-6.016 6.24-15.52 0.8-21.888l0.064-0.064-21.888-30.016c-13.696-18.688-29.376-36.928-46.752-54.304-18.080-18.080-37.568-34.336-57.568-49.696l-0.128 0.064c-6.368-5.856-16.256-5.728-22.368 0.448-6.304 6.304-6.304 16.576 0 22.88 1.12 1.184 2.432 2.016 3.744 2.752 18.816 14.368 36.96 29.44 53.696 46.176z" />
<glyph unicode="&#xe617;" glyph-name="no-funds" data-tags="creative-commons-noncommercial-us" d="M511.369 952.32c137.79 0 254.28-47.505 349.44-142.53 95.131-95.040 142.711-211.364 142.711-348.99s-46.771-252.735-140.251-345.3c-99.27-97.485-216.57-146.22-351.901-146.22-133.68 0-248.939 48.315-345.72 144.989-96.794 96.661-145.169 212.191-145.169 346.531s48.375 250.68 145.169 348.99c94.321 95.025 209.581 142.53 345.72 142.53zM131.060 592.83c-14.67-41.475-22.005-85.485-22.005-132.030 0-108.961 39.779-203.161 119.34-282.615 79.576-79.47 174.285-119.206 284.205-119.206 109.921 0 205.471 40.125 286.68 120.421 27.179 26.279 49.559 54.93 67.14 85.994l-185.28 82.515c-12.571-62.34-68.131-104.46-135.3-109.411v-75.765h-56.416v75.765c-55.17 0.631-108.465 23.175-149.204 58.861l67.71 68.264c32.594-30.689 65.189-44.475 109.709-44.475 28.831 0 60.81 11.28 60.81 48.856 0 13.319-5.159 22.575-13.289 29.534l-105.21 46.845c-28.86 12.855-53.31 23.745-77.851 34.651l-251.039 111.795zM512.599 863.865c-111.54 0-205.859-39.329-282.96-117.989-20.999-21.166-39.239-43.291-54.749-66.375l187.89-83.655c16.98 52.11 66.51 83.715 126.645 87.254v75.766h56.416v-75.766c38.879-1.874 81.509-12.525 123.51-45.089l-64.559-66.375c-23.82 16.905-53.911 28.815-84.030 28.815-24.436 0-58.921-7.529-58.921-38.205 0-4.68 1.561-8.806 4.41-12.48l105.391-46.936c27.21-12.105 53.19-23.67 78.929-35.13l251.85-112.14c8.341 33.001 12.511 68.085 12.511 105.241 0 112.245-39.36 207.269-118.111 285.075-77.94 78.66-172.649 117.989-284.22 117.989z" />
<glyph unicode="&#xe800;" glyph-name="cut-dollar" data-tags="CutsinSS" horiz-adv-x="955" d="M410.392 513.584c-17.155 18.474-32.99 38.268-48.825 55.423 21.113 7.918 48.825 18.474 80.495 30.351 13.196-18.474 27.711-38.268 42.227-59.381l-73.897-26.392zM186.062 780.14c26.392-19.794 63.34-36.948 98.969-46.186 2.639 0 7.918-22.433 13.196-46.186 2.639 2.639 6.598 6.598 9.237 9.237l5.278 5.278 6.598 1.32c2.639 0 18.474 5.278 40.907 10.557-23.753 36.948-22.433 81.814-21.113 121.402 1.32 30.351-15.835 67.299-43.546 88.412-43.546 31.67-102.928 26.392-131.959-14.515-31.67-38.268-21.113-96.33 22.433-129.32zM184.742 893.625c19.794 26.392 60.701 30.351 91.052 7.918 18.474-14.515 30.351-36.948 29.031-59.381-1.32-42.227-36.948-84.454-100.289-36.948-30.351 22.433-38.268 62.021-19.794 88.412v0zM591.175 749.79c-31.67-7.918-265.237-71.258-265.237-71.258s-75.216-75.216-80.495-72.577c-34.309 11.876-75.216 18.474-108.206 17.155-54.103-2.639-96.33-44.866-93.691-95.010s47.505-88.412 101.608-85.773c35.629 1.32 68.619 22.433 85.773 48.825 23.753 35.629 48.825 75.216 92.371 91.052 50.144 18.474 394.557 146.474 394.557 146.474s-51.464 38.268-126.68 21.113zM201.897 505.666c-11.876-19.794-34.309-31.67-58.062-32.99-36.948-1.32-69.938 23.753-71.258 56.742s27.711 60.701 65.979 63.34c79.175 2.639 87.093-51.464 63.34-87.093zM356.289 629.707c-9.237 1.32-14.515 9.237-13.196 18.474s9.237 14.515 18.474 13.196c9.237-1.32 14.515-9.237 13.196-18.474s-10.557-15.835-18.474-13.196zM806.268 196.882l-609.649-221.691-138.557 380.041 473.732 172.866 274.474-331.216zM604.371 339.398c-27.711 76.536-106.887 117.443-176.825 92.371s-102.928-108.206-75.216-184.742c27.711-76.536 106.887-117.443 176.825-92.371s102.928 108.206 75.216 184.742zM529.155 200.841l-9.237 23.753c23.753 14.515 31.67 39.588 23.753 60.701v0c-7.918 22.433-27.711 32.99-58.062 31.67v0c-10.557 0-18.474 1.32-23.753 1.32v0c-5.278 1.32-5.278 2.639-6.598 3.959v0c-1.32 2.639-1.32 3.959 0 6.598v0c1.32 2.639 5.278 5.278 11.876 7.918v0c15.835 5.278 26.392 3.959 34.309 3.959h5.278l-2.639 38.268h-3.959c-9.237 1.32-19.794 0-32.99-3.959l-7.918 19.794-31.67-11.876 7.918-22.433c-21.113-14.515-30.351-36.948-22.433-58.062v0c3.959-11.876 13.196-21.113 23.753-25.072v0c10.557-3.959 23.753-5.278 36.948-5.278v0c9.237 0 15.835 0 19.794-1.32v0c3.959-1.32 5.278-2.639 6.598-6.598v0c1.32-2.639 0-5.278-1.32-7.918v0c-2.639-2.639-6.598-5.278-11.876-7.918v0c-13.196-5.278-27.711-5.278-39.588-3.959l-6.598 1.32 3.959-39.588 3.959-1.32c10.557-1.32 25.072-1.32 39.588 2.639l7.918-22.433 32.99 15.835zM823.423 244.388l93.691 34.309-139.876 380.041-228.289-83.134 274.474-331.216z" />
<glyph unicode="&#xe801;" glyph-name="tombstone" data-tags="DyingEarly" horiz-adv-x="1115" d="M400.964 510.149h-29.301v-55.518h29.301c9.253 0 15.422 1.542 21.59 6.169s7.711 10.795 7.711 20.048c0 9.253-3.084 15.422-7.711 21.59-6.169 4.627-12.337 7.711-21.59 7.711zM710.94 510.149h-33.928v-63.229h33.928c9.253 0 16.964 3.084 23.133 9.253s7.711 13.88 7.711 23.133c0 9.253-3.084 16.964-7.711 23.133-6.169 4.627-13.88 7.711-23.133 7.711zM1022.458 158.535h-52.434v97.157c0 6.169 1.542 10.795 1.542 16.964v374.747c-1.542 161.928-134.169 294.554-296.096 294.554h-223.614c-161.928 0-294.554-132.627-294.554-294.554v-488.867h-50.892l-9.253-23.133h-1.542v-3.084l-63.229-158.843h1062.554l-72.482 185.060zM487.325 335.884h-46.265c-3.084 3.084-6.169 7.711-7.711 15.422s-1.542 15.422-1.542 21.59v13.88c0 10.795-3.084 18.506-7.711 23.133s-12.337 7.711-21.59 7.711h-30.843v-81.735h-46.265v212.819h75.566c23.133 0 40.096-6.169 53.976-16.964s20.048-26.217 20.048-46.265c0-10.795-3.084-20.048-7.711-27.759s-13.88-13.88-23.133-18.506c12.337-3.084 20.048-9.253 26.217-18.506 4.627-9.253 7.711-20.048 7.711-32.386v-13.88c0-6.169 0-12.337 1.542-18.506 1.542-7.711 4.627-12.337 7.711-15.422v-4.627zM576.771 335.884h-44.723v212.819h44.723v-212.819zM766.458 428.414c-13.88-12.337-32.386-18.506-55.518-18.506h-33.928v-72.482h-46.265v211.277h80.193c23.133 0 41.639-6.169 55.518-20.048 13.88-12.337 20.048-29.301 20.048-50.892 0-20.048-6.169-37.012-20.048-49.349z" />
<glyph unicode="&#xe802;" glyph-name="onfire-dollar" data-tags="HigherInflation" horiz-adv-x="1045" d="M851.432 710.382l-77.014-28.524c11.409-37.081 15.688-74.162 15.688-115.521 0-8.557-7.131-15.688-15.688-15.688s-15.688 7.131-15.688 15.688c0 156.88-114.095 225.337-249.582 239.599 45.638-17.114 77.014-81.292 52.769-96.981-51.343-31.376-195.387 81.292-82.719 241.025-94.128-42.786-161.159-131.209-152.602-241.025 7.131-85.571 44.212-99.833 31.376-105.538-47.064-17.114-96.981 67.031-68.457 132.635-114.095-114.095-75.588-206.797-45.638-249.582l-211.075-74.162 161.159-442.117 818.63 298.072-161.159 442.117zM581.883 179.842c-81.292-29.95-172.568 18.54-205.37 106.964s7.131 185.404 88.423 213.928c81.292 29.95 172.568-18.54 205.37-106.964 31.376-88.423-8.557-185.404-88.423-213.928zM598.997 332.443c-8.557 27.097-31.376 38.507-68.457 37.081-12.836 0-21.393 1.426-27.097 2.852s-7.131 2.852-7.131 5.705c-1.426 2.852-1.426 4.279 0 7.131s5.705 5.705 12.836 8.557c18.54 7.131 31.376 4.279 39.933 4.279h7.131l-4.279 44.212h-4.279c-9.983 1.426-22.819 0-38.507-4.279l-8.557 24.245-37.081-12.836 9.983-25.671c-25.671-17.114-35.655-42.786-25.671-68.457 5.705-14.262 15.688-24.245 27.097-28.524 12.836-5.705 27.097-7.131 44.212-5.705 11.409 0 18.54 0 22.819-2.852 4.279-1.426 7.131-2.852 7.131-7.131 1.426-2.852 0-5.705-1.426-9.983-2.852-2.852-7.131-7.131-14.262-8.557-15.688-5.705-32.802-5.705-45.638-4.279h-7.131l4.279-45.638 4.279-1.426c12.836-2.852 29.95-1.426 47.064 4.279l9.983-25.671 37.081 12.836-9.983 28.524c25.671 17.114 35.655 45.638 25.671 71.309z" />
<glyph unicode="&#xe803;" glyph-name="birthday-cake" data-tags="LivingLonger" horiz-adv-x="917" d="M109.816 281.101c18.54-18.54 28.524-28.524 51.343-28.524s32.802 8.557 51.343 28.524c19.967 19.967 47.064 48.49 98.407 48.49s78.44-27.097 98.407-48.49c18.54-18.54 28.524-28.524 51.343-28.524s32.802 8.557 51.343 28.524c19.967 19.967 47.064 48.49 98.407 48.49s78.44-27.097 98.407-48.49c18.54-18.54 28.524-28.524 51.343-28.524s32.802 8.557 51.343 28.524c18.54 18.54 42.786 44.212 88.423 47.064v148.323c0 29.95-24.245 55.621-55.621 55.621h-767.287c-29.95 0-55.621-24.245-55.621-55.621v-148.323c44.212-4.279 69.883-28.524 88.423-47.064zM857.136 235.463c-19.967-19.967-47.064-48.49-98.407-48.49s-78.44 27.097-98.407 48.49c-18.54 18.54-28.524 28.524-51.343 28.524s-32.802-8.557-51.343-28.524c-19.967-19.967-47.064-48.49-98.407-48.49s-78.44 27.097-98.407 48.49c-18.54 18.54-28.524 28.524-51.343 28.524s-32.802-8.557-51.343-28.524c-19.967-19.967-47.064-48.49-98.407-48.49s-78.44 27.097-98.407 48.49c-15.688 15.688-24.245 24.245-39.933 27.097v-245.304c0-29.95 24.245-55.621 55.621-55.621h764.435c29.95 0 55.621 24.245 55.621 55.621v245.304c-15.688-2.852-24.245-11.409-39.933-27.097zM293.794 570.616h-99.833v198.24c0 17.114 14.262 31.376 32.802 31.376h35.655c17.114 0 32.802-14.262 32.802-31.376v-198.24zM292.368 865.836c0-27.097-21.393-48.49-48.49-48.49s-48.49 21.393-48.49 48.49c0 27.097 48.49 94.128 48.49 94.128s48.49-67.031 48.49-94.128zM509.148 570.616h-99.833v198.24c0 17.114 14.262 31.376 32.802 31.376h35.655c17.114 0 32.802-14.262 32.802-31.376v-198.24zM507.721 865.836c0-27.097-21.393-48.49-48.49-48.49s-48.49 21.393-48.49 48.49c0 27.097 48.49 94.128 48.49 94.128s48.49-67.031 48.49-94.128zM724.501 570.616h-99.833v198.24c0 17.114 14.262 31.376 32.802 31.376h35.655c17.114 0 32.802-14.262 32.802-31.376v-198.24zM724.501 865.836c0-27.097-21.393-48.49-48.49-48.49s-48.49 21.393-48.49 48.49c0 27.097 48.49 94.128 48.49 94.128s48.49-67.031 48.49-94.128z" />
<glyph unicode="&#xe804;" glyph-name="heart-med" data-tags="LongTermCare" horiz-adv-x="1145" d="M571.9 368.098c0 165.437 135.487 300.925 300.925 300.925 79.866 0 155.454-31.376 212.501-88.423 4.279-4.279 8.557-8.557 12.836-14.262 11.409 64.178 7.131 126.93-14.262 183.978-21.393 58.474-59.9 109.816-109.816 146.897s-106.964 58.474-164.011 59.9c-98.407 4.279-183.978-47.064-242.451-141.192-58.474 94.128-144.045 145.471-242.451 141.192-58.474-1.426-114.095-22.819-164.011-59.9s-88.423-88.423-109.816-146.897c-25.671-69.883-28.524-146.897-5.705-223.911 25.671-86.997 81.292-171.142 165.437-249.582 124.078-115.521 299.499-265.27 339.432-298.072l17.114-14.262 17.114 14.262c19.967 17.114 77.014 65.604 145.471 124.078-94.128 52.769-158.306 151.175-158.306 265.27zM872.825 631.942c-145.471 0-263.844-118.373-263.844-263.844s118.373-263.844 263.844-263.844c145.471 0 263.844 118.373 263.844 263.844s-118.373 263.844-263.844 263.844zM872.825 151.318c-119.799 0-216.78 96.981-216.78 216.78s96.981 216.78 216.78 216.78c119.799 0 216.78-96.981 216.78-216.78 0-118.373-96.981-216.78-216.78-216.78zM912.758 408.031v104.111h-78.44v-104.111h-104.111v-78.44h104.111v-104.111h78.44v104.111h104.111v78.44z" />
<glyph unicode="&#xe805;" glyph-name="low-return" data-tags="Lower Returns" horiz-adv-x="985" d="M-25.622 71.167h1121.648v-58.062h-1121.648v58.062zM209.042 908.492h-137.901c-30.129 0-55.624-24.335-55.624-54.465v-628.088c0-30.129 24.335-55.624 55.624-55.624h137.901c30.129 0 55.624 24.335 55.624 55.624v628.088c-1.16 30.129-25.495 54.465-55.624 54.465zM100.113 635.007c0-9.271-8.111-17.382-19.701-17.382-10.43 0-19.701 8.111-19.701 17.382v171.507c0 9.271 8.111 17.382 19.701 17.382 10.43 0 19.701-8.111 19.701-17.382v-171.507zM916.659 552.615h-120.979c-26.433 0-48.798-21.349-48.798-48.798v-246.024c0-26.433 21.349-48.798 48.798-48.798h120.979c26.433 0 48.798 21.349 48.798 48.798v246.024c0 26.433-22.365 48.798-48.798 48.798zM820.079 364.539c0-8.133-7.117-15.25-17.283-15.25-9.15 0-17.283 7.117-17.283 15.25v106.747c0 8.133 7.117 15.25 17.283 15.25 9.15 0 17.283-7.117 17.283-15.25v-106.747zM569.936 716.91h-131.749c-28.785 0-53.142-23.249-53.142-53.142v-427.355c0-28.785 23.249-53.142 53.142-53.142h131.749c28.785 0 53.142 23.249 53.142 53.142v428.462c-1.108 28.785-24.357 52.035-53.142 52.035zM463.652 512.090c0-8.857-7.749-16.608-18.821-16.608-9.964 0-18.821 7.749-18.821 16.608v116.249c0 8.857 7.749 16.608 18.821 16.608 9.964 0 18.821-7.749 18.821-16.608v-116.249z" />
<glyph unicode="&#xe806;" glyph-name="house-user" data-tags="OutOfWork" horiz-adv-x="1115" d="M1096.482 487.017l-192.771 168.096v175.807c0 16.964-13.88 30.843-30.843 30.843h-50.892c-16.964 0-30.843-13.88-30.843-30.843v-77.108l-212.819 186.602c-12.337 10.795-27.759 10.795-41.639 0l-516.627-453.398c-12.337-10.795-13.88-30.843-3.084-43.181l33.928-38.554c10.795-12.337 30.843-13.88 43.181-3.084l464.193 405.59 464.193-405.59c12.337-10.795 32.386-9.253 43.181 3.084l33.928 38.554c10.795 13.88 9.253 32.386-3.084 43.181zM931.47 422.246l-373.205 325.398-374.747-325.398c-9.253-7.711-20.048-16.964-20.048-38.554v-379.373c0-16.964 13.88-30.843 30.843-30.843h726.361c16.964 0 30.843 13.88 30.843 30.843v377.831c0 23.133-9.253 30.843-20.048 40.096zM555.181 462.342c0 0 1.542 0 1.542 0s1.542 0 1.542 0c16.964 0 32.386-6.169 44.723-13.88 23.133-15.422 40.096-40.096 40.096-69.398 0-1.542 0-3.084 0-4.627 0-47.807-38.554-87.904-87.904-87.904-47.807 0-87.904 38.554-87.904 87.904 1.542 47.807 40.096 86.361 87.904 87.904zM706.313 164.704l-7.711-64.771c-4.627-33.928-26.217-38.554-69.398-38.554h-144.964c-43.181 0-64.771 4.627-69.398 38.554l-7.711 64.771c-7.711 70.94 70.94 98.699 143.422 100.241h10.795c74.024-1.542 154.217-29.301 144.964-100.241z" />
<glyph unicode="&#xe807;" glyph-name="broken-bank" data-tags="PensionReduced" horiz-adv-x="1363" d="M1272.082 541.295c-35.629 0-71.258 21.113-100.289 47.505-30.351 27.711-54.103 60.701-67.299 79.175l18.474 25.072 93.691 126.68c5.278 6.598 6.598 15.835 2.639 23.753s-10.557 13.196-19.794 14.515c0 0-7.918 1.32-21.113 1.32-5.278 0-10.557 0-17.155 0-2.639 0-5.278 0-7.918 0-47.505-1.32-106.887-10.557-142.515-48.825 0 0-1.32-1.32-1.32-1.32-3.959-5.278-9.237-10.557-13.196-15.835-5.278-7.918-9.237-15.835-13.196-23.753-42.227 23.753-126.68 62.021-168.907 73.897-22.433 6.598-46.186 11.876-71.258 14.515l102.928-266.557-216.412-121.402 112.165-234.887-277.113 252.041 242.804 138.557-110.845 233.567c-29.031-3.959-58.062-10.557-85.773-18.474-83.134-25.072-155.711-69.938-208.495-128-6.598-7.918-14.515-15.835-21.113-23.753 0 0 0 0 0 0-3.959 2.639-7.918 5.278-11.876 7.918-10.557 7.918-22.433 17.155-32.99 27.711-3.959 3.959-7.918 9.237-11.876 13.196-42.227 47.505-18.474 100.289 0 121.402 5.278 7.918 14.515 7.918 21.113 2.639s6.598-15.835 1.32-22.433c-3.959-3.959-32.99-40.907 0-79.175 2.639-3.959 6.598-6.598 9.237-9.237s6.598-6.598 9.237-9.237c19.794 17.155 36.948 38.268 46.186 62.021 7.918 17.155 11.876 35.629 10.557 52.784-1.32 36.948-21.113 64.66-54.103 79.175-31.67 13.196-64.66 7.918-91.052-13.196-36.948-29.031-56.742-85.773-51.464-142.515-31.67 5.278-50.144 26.392-56.742 51.464-2.639 9.237-13.196 10.557-19.794-2.639-11.876-23.753-27.711-81.814 35.629-117.443 21.113-11.876 47.505-13.196 72.577-10.557 10.557-14.515 22.433-27.711 35.629-39.588 15.835-14.515 31.67-26.392 46.186-36.948-22.433-46.186-35.629-96.33-35.629-149.113 0-80.495 29.031-155.711 80.495-217.732l-15.835-68.619-18.474-87.093c-7.918-47.505 23.753-93.691 83.134-102.928l80.495-10.557c44.866-3.959 87.093 18.474 100.289 60.701 1.32 3.959 1.32 6.598 2.639 10.557l10.557 46.186c44.866-11.876 93.691-18.474 143.835-18.474 46.186 0 91.052 5.278 133.278 15.835l9.237-43.546c1.32-3.959 1.32-9.237 3.959-13.196 14.515-39.588 56.742-63.34 98.969-58.062l80.495 10.557c62.021 10.557 91.052 54.103 83.134 102.928l-17.155 76.536-7.918 32.99c27.711 23.753 54.103 47.505 87.093 68.619 31.67 19.794 67.299 34.309 114.804 39.588 36.948 5.278 59.381 21.113 65.979 65.979l10.557 102.928c-2.639 43.546-27.711 52.784-60.701 52.784z" />
<glyph unicode="&#xe808;" glyph-name="clock" data-tags="RetireEarly" horiz-adv-x="1060" d="M558.186 522.821c0-6.598-7.918-11.876-19.794-11.876v0c-10.557 0-19.794 5.278-19.794 11.876v219.052c0 6.598 9.237 11.876 19.794 11.876v0c10.557 0 19.794-5.278 19.794-11.876v-219.052zM599.093 446.285c-6.598 0-11.876 9.237-11.876 19.794v0c0 10.557 5.278 19.794 11.876 19.794h219.052c6.598 0 11.876-9.237 11.876-19.794v0c0-10.557-5.278-19.794-11.876-19.794h-219.052zM538.392 943.769c-270.515 0-489.567-219.052-489.567-489.567s219.052-489.567 489.567-489.567c270.515 0 489.567 219.052 489.567 489.567s-219.052 489.567-489.567 489.567zM538.392 62.285c-216.412 0-391.918 175.505-391.918 391.918s175.505 391.918 391.918 391.918c216.412 0 391.918-175.505 391.918-391.918s-175.505-391.918-391.918-391.918zM538.392 530.738c-35.629 0-65.979-29.031-65.979-65.979s29.031-65.979 65.979-65.979c35.629 0 65.979 29.031 65.979 65.979s-29.031 65.979-65.979 65.979zM538.392 423.852c-22.433 0-40.907 18.474-40.907 40.907s18.474 40.907 40.907 40.907c22.433 0 40.907-18.474 40.907-40.907s-18.474-40.907-40.907-40.907z" />
<glyph unicode="&#xe809;" glyph-name="sinking-stock" data-tags="Stock Sinks, stocks" horiz-adv-x="1163" d="M719.267 309.667l-12.337 30.843 29.301 12.337-21.59 23.133 21.59 23.133-29.301 13.88 10.795 29.301-32.386 1.542 1.542 30.843-30.843-10.795-12.337 29.301-23.133-21.59-23.133 21.59-13.88-29.301-29.301 10.795-1.542-32.386-32.386-1.542 10.795-29.301-29.301-12.337 21.59-23.133-21.59-23.133 29.301-13.88-10.795-29.301 32.386-1.542 1.542-32.386 29.301 10.795 12.337-29.301 23.133 21.59 23.133-21.59 13.88 29.301 29.301-10.795 1.542 32.386 32.386 1.542zM660.665 314.294c-35.47-23.133-83.277-13.88-106.41 21.59s-13.88 83.277 21.59 106.41 83.277 13.88 106.41-21.59c23.133-33.928 13.88-81.735-21.59-106.41zM677.629 379.065c0-32.365-26.237-58.602-58.602-58.602s-58.602 26.237-58.602 58.602c0 32.365 26.237 58.602 58.602 58.602s58.602-26.237 58.602-58.602zM1012.28 64.463c-33.928 0-49.349 13.88-72.482 35.47-27.759 26.217-61.687 58.602-129.542 58.602-66.313 0-101.783-32.386-129.542-58.602-23.133-21.59-38.554-35.47-72.482-35.47s-49.349 13.88-72.482 35.47c-27.759 26.217-61.687 58.602-128 58.602s-101.783-32.386-129.542-58.602c-23.133-21.59-38.554-35.47-72.482-35.47s-49.349 13.88-72.482 35.47c-27.759 26.217-61.687 58.602-129.542 58.602v-83.277c33.928 0 49.349-13.88 72.482-35.47 27.759-26.217 61.687-58.602 129.542-58.602 66.313 0 101.783 32.386 129.542 58.602 23.133 21.59 38.554 35.47 72.482 35.47s49.349-13.88 72.482-35.47c27.759-26.217 61.687-58.602 128-58.602s101.783 32.386 129.542 58.602c23.133 21.59 38.554 35.47 72.482 35.47s49.349-13.88 72.482-35.47c27.759-26.217 61.687-58.602 129.542-58.602 66.313 0 101.783 32.386 129.542 58.602 23.133 21.59 38.554 35.47 72.482 35.47v83.277c-66.313 0-101.783-32.386-129.542-58.602-23.133-21.59-38.554-35.47-72.482-35.47zM1084.761 278.824c-23.133-21.59-38.554-35.47-72.482-35.47s-49.349 13.88-72.482 35.47c-15.422 15.422-33.928 32.386-60.145 43.181l200.482 132.627-92.53 140.337-237.494 359.325-712.482-471.904 157.301-239.036c-27.759 3.084-41.639 15.422-61.687 35.47-27.759 26.217-61.687 58.602-129.542 58.602v-83.277c33.928 0 49.349-13.88 72.482-35.47 27.759-26.217 61.687-58.602 129.542-58.602 66.313 0 101.783 32.386 129.542 58.602 23.133 21.59 38.554 35.47 72.482 35.47s49.349-13.88 72.482-35.47c27.759-26.217 61.687-58.602 128-58.602s101.783 32.386 129.542 58.602c23.133 21.59 38.554 35.47 72.482 35.47s49.349-13.88 72.482-35.47c27.759-26.217 61.687-58.602 129.542-58.602 66.313 0 101.783 32.386 129.542 58.602 23.133 21.59 38.554 35.47 72.482 35.47v83.277c-66.313 0-101.783-32.386-129.542-58.602zM1029.243 465.427l-197.398-129.542c-3.084 0-6.169 0-9.253 0l203.566 134.169 3.084-4.627zM1018.448 477.764l-212.819-140.337c-4.627 0-9.253 0-13.88-1.542l223.614 148.048 3.084-6.169zM608.231 243.354c-33.928 0-49.349 13.88-72.482 35.47-27.759 26.217-61.687 58.602-128 58.602s-101.783-32.386-129.542-58.602c-15.422-13.88-26.217-24.675-41.639-30.843l-107.952 163.47 30.843 20.048c-1.542 3.084-3.084 4.627-4.627 7.711l-30.843-20.048-3.084 4.627 32.386 21.59c-1.542 3.084-1.542 6.169-1.542 9.253l-35.47-23.133-3.084 4.627 37.012 24.675c0 3.084 0 6.169 0 9.253l-41.639-27.759-3.084 6.169 46.265 30.843c0 4.627 1.542 7.711 3.084 12.337l-53.976-35.47-3.084 4.627 61.687 40.096c3.084 6.169 6.169 10.795 9.253 16.964l-75.566-50.892-3.084 6.169 649.253 430.265 3.084-6.169-74.024-49.349c6.169 1.542 12.337 1.542 18.506 1.542l61.687 40.096 3.084-4.627-53.976-35.47c4.627 0 7.711-1.542 12.337-1.542l46.265 30.843 3.084-4.627-41.639-27.759c3.084-1.542 6.169-3.084 9.253-4.627l37.012 24.675 3.084-4.627-35.47-23.133c3.084-1.542 4.627-3.084 7.711-4.627l32.386 21.59 4.627-6.169-30.843-20.048c1.542-1.542 3.084-4.627 4.627-6.169l30.843 20.048 175.807-266.795 30.843-47.807-205.108-135.711c1.542-1.542 3.084-4.627 3.084-6.169l206.651 135.711 3.084-6.169-206.651-135.711c1.542-3.084 1.542-6.169 3.084-9.253l208.193 138.795 3.084-6.169-211.277-138.795c0-3.084 0-6.169 0-10.795l215.904 141.88 3.084-6.169-218.988-143.422c0-4.627-1.542-6.169-3.084-10.795-52.434-6.169-83.277-33.928-107.952-57.060-23.133-21.59-38.554-35.47-72.482-35.47zM376.906 571.836l157.301 104.867c4.627 3.084 6.169 10.795 3.084 15.422s-10.795 6.169-15.422 3.084l-157.301-104.867c-4.627-3.084-6.169-10.795-3.084-15.422 4.627-4.627 10.795-6.169 15.422-3.084zM713.099 729.137c-3.084 6.169-9.253 7.711-13.88 3.084l-437.976-288.386c-4.627-3.084-6.169-10.795-3.084-15.422s10.795-6.169 15.422-3.084l436.434 288.386c4.627 3.084 6.169 10.795 3.084 15.422zM629.822 596.511c-3.084 4.627-9.253 6.169-15.422 3.084l-198.94-131.084c-4.627-3.084-6.169-10.795-3.084-15.422s10.795-6.169 15.422-3.084l198.94 131.084c4.627 3.084 6.169 10.795 3.084 15.422z" />
<glyph unicode="&#xe80a;" glyph-name="retirement-expenses" data-tags="Basic Retirement Expenses" d="M512 475.136l-468.992 69.632 2.048 10.24c26.624 163.84 137.216 303.104 292.864 364.544s333.824 34.816 464.896-69.632l8.192-6.144-299.008-368.64zM67.584 561.152l436.224-63.488 278.528 344.064c-124.928 94.208-290.816 116.736-436.224 59.392v0c-145.408-57.344-251.904-186.368-278.528-339.968zM507.904-20.48c-188.416 0-366.592 112.64-438.272 296.96v0c-30.72 75.776-40.96 157.696-28.672 237.568l2.048 10.24 468.992-69.632 174.080-440.32-10.24-4.096c-55.296-20.48-112.64-30.72-167.936-30.72zM88.064 284.672c88.064-225.28 344.064-339.968 571.392-258.048l-161.792 409.6-438.272 63.488c-8.192-71.68 2.048-147.456 28.672-215.040v0zM702.464 20.48l-174.080 440.32 296.96 368.64 8.192-6.144c61.44-51.2 108.544-116.736 139.264-190.464 94.208-239.616-22.528-512-262.144-608.256l-8.192-4.096zM550.912 458.752l161.792-409.6c221.184 96.256 329.728 352.256 241.664 577.536-26.624 67.584-69.632 126.976-124.928 174.080l-278.528-342.016zM581.632 718.848l-43.008 34.816v79.872c0 4.096-2.048 6.144-6.144 6.144h-36.864c-4.096 0-6.144-2.048-6.144-6.144v-38.912l-47.104 38.912c-8.192 6.144-20.48 6.144-28.672 0l-139.264-116.736c-2.048-2.048-2.048-6.144 0-8.192l12.288-14.336c0-2.048 2.048-2.048 4.096-2.048s4.096 0 4.096 2.048l135.168 112.64 135.168-112.64c2.048 0 2.048-2.048 4.096-2.048 0 0 0 0 0 0 2.048 0 4.096 0 4.096 2.048l12.288 14.336c-2.048 4.096-2.048 8.192-4.096 10.24zM425.984 788.48l-112.64-92.16c0 0 0 0 0-2.048v-94.208c0-6.144 6.144-12.288 12.288-12.288h75.776v77.824h49.152v-75.776h75.776c6.144 0 12.288 6.144 12.288 12.288v94.208c0 0 0 0 0 2.048l-112.64 90.112zM462.848 362.496h-206.848c-2.048 8.192-2.048 22.528-14.336 22.528h-43.008c-6.144 0-10.24-4.096-10.24-10.24s4.096-10.24 10.24-10.24h34.816l30.72-143.36c-2.048-4.096-10.24-18.432-10.24-24.576s4.096-10.24 10.24-10.24h4.096c-8.192-2.048-16.384-10.24-16.384-20.48 0-12.288 10.24-22.528 22.528-22.528s22.528 10.24 22.528 22.528c0 10.24-6.144 18.432-16.384 20.48h141.312c-8.192-2.048-16.384-10.24-16.384-20.48 0-12.288 10.24-22.528 22.528-22.528s22.528 10.24 22.528 22.528c0 10.24-6.144 18.432-16.384 20.48h4.096c6.144 0 10.24 4.096 10.24 10.24s-4.096 10.24-10.24 10.24h-157.696c2.048 4.096 4.096 6.144 4.096 10.24s-2.048 8.192-2.048 12.288l180.224 20.48c6.144 0 10.24 6.144 10.24 10.24v88.064c2.048 10.24-4.096 14.336-10.24 14.336zM845.824 331.776c0 2.048 0 2.048 0 2.048 0 43.008 0 86.016 0 131.072 0 2.048 0 4.096-2.048 6.144-4.096 14.336-4.096 28.672-4.096 40.96s2.048 26.624 4.096 38.912c-4.096 2.048-10.24 4.096-16.384 4.096 0-2.048-2.048-4.096-2.048-4.096 0-8.192-4.096-18.432-6.144-28.672-2.048-8.192-6.144-10.24-12.288-4.096-8.192 8.192-14.336 14.336-22.528 22.528-4.096 4.096-8.192 4.096-12.288 0-8.192-8.192-14.336-14.336-22.528-22.528-6.144-6.144-10.24-4.096-12.288 4.096-2.048 6.144-2.048 10.24-4.096 16.384-2.048 8.192-4.096 14.336-6.144 22.528-6.144-2.048-10.24-4.096-16.384-6.144 0-2.048 0-4.096 0-4.096 4.096-18.432 6.144-34.816 4.096-53.248 0-8.192-2.048-16.384-4.096-24.576 0-2.048-2.048-6.144-2.048-8.192 0-40.96 0-83.968 0-124.928 0-2.048 0-4.096 0-6.144 47.104-2.048 92.16-2.048 137.216-2.048zM700.416 548.864c-10.24-8.192-18.432-16.384-22.528-28.672-8.192-20.48-14.336-40.96-22.528-59.392-6.144-14.336-8.192-30.72-8.192-47.104s0-34.816 0-51.2c0-2.048 0-4.096 0-6.144 10.24 0 18.432 0 26.624 0 0 20.48 0 40.96 0 61.44 0 12.288 2.048 22.528 8.192 30.72 4.096 6.144 8.192 14.336 12.288 20.48 2.048 4.096 6.144 8.192 8.192 14.336 6.144 20.48 2.048 43.008-2.048 65.536zM909.312 354.304c0 26.624 0 53.248 0 77.824 0 2.048 0 2.048 0 4.096-6.144 18.432-12.288 36.864-18.432 55.296-6.144 14.336-10.24 30.72-20.48 43.008-4.096 4.096-8.192 8.192-12.288 12.288 0 0-2.048 0-2.048 0 0-16.384-2.048-30.72-2.048-47.104 0-12.288 2.048-24.576 10.24-34.816 4.096-4.096 6.144-10.24 10.24-16.384 6.144-10.24 10.24-20.48 8.192-32.768 0-18.432 0-36.864 0-55.296 0-2.048 0-4.096 0-6.144 8.192 0 16.384 0 26.624 0zM741.376 567.296c0 0-2.048-2.048-2.048-4.096 2.048-10.24 4.096-20.48 8.192-30.72 4.096 4.096 10.24 8.192 12.288 12.288-6.144 8.192-12.288 16.384-18.432 22.528zM815.104 567.296c-6.144-8.192-12.288-14.336-18.432-22.528 4.096-4.096 8.192-8.192 12.288-12.288 2.048 10.24 6.144 20.48 8.192 30.72 0 2.048 0 4.096-2.048 4.096z" />
<glyph unicode="&#xe80b;" glyph-name="car" data-tags="Car" horiz-adv-x="1536" d="M1466.88 627.2c0 33.28-53.76 69.12-104.96 69.12-43.52 0-69.12-25.6-76.8-53.76l-99.84 161.28c-33.28 53.76-117.76 76.8-417.28 76.8s-381.44-23.040-414.72-74.24l-99.84-161.28c-7.68 28.16-35.84 53.76-76.8 53.76-51.2 0-104.96-35.84-104.96-69.12s53.76-51.2 104.96-51.2c5.12 0 7.68 0 12.8 0-30.72-25.6-58.88-51.2-58.88-51.2-20.48-20.48-38.4-58.88-38.4-87.040v-220.16c0-20.48 10.24-35.84 33.28-51.2v-117.76c0-20.48 15.36-35.84 35.84-35.84h161.28c20.48 0 35.84 15.36 35.84 35.84v46.080c112.64-15.36 250.88-23.040 409.6-23.040 156.16 0 296.96 7.68 409.6 23.040v-46.080c0-20.48 15.36-35.84 35.84-35.84h161.28c20.48 0 35.84 15.36 35.84 35.84v117.76c20.48 15.36 33.28 33.28 33.28 51.2v220.16c0 28.16-17.92 66.56-38.4 87.040 0 0-30.72 23.040-58.88 51.2 5.12 0 7.68 0 12.8 0 51.2-2.56 107.52 15.36 107.52 48.64zM386.56 785.92c20.48 33.28 94.72 56.32 381.44 56.32s360.96-23.040 381.44-56.32l94.72-171.52c0 0-122.88-25.6-476.16-25.6s-476.16 25.6-476.16 25.6l94.72 171.52zM419.84 437.76c-5.12-46.080-79.36-64-140.8-58.88-64 5.12-92.16 30.72-87.040 76.8 2.56 33.28 35.84 51.2 99.84 46.080 89.6-5.12 130.56-30.72 128-64zM1024 215.040c-46.080-46.080-465.92-46.080-512 0-15.36 15.36-15.36 53.76 0 69.12 46.080 46.080 465.92 46.080 512 0 15.36-15.36 15.36-56.32 0-69.12zM1259.52 378.88c-64-5.12-138.24 10.24-140.8 58.88-2.56 33.28 40.96 58.88 130.56 66.56 64 5.12 97.28-12.8 99.84-46.080 2.56-46.080-28.16-71.68-89.6-79.36z" />
<glyph unicode="&#xe80c;" glyph-name="celebration-wine" data-tags="Celebration, wine glasses" horiz-adv-x="1280" d="M1218.56 801.28c0 0 0 0 0 0-2.56 15.36-145.92 2.56-320-28.16-148.48-28.16-271.36-58.88-302.080-76.8l110.080 120.32c0 0 0 0 0 0 2.56 15.36-140.8 46.080-320 71.68-176.64 25.6-322.56 33.28-325.12 17.92 0 0 0-2.56 0-2.56v0l258.56-514.56 268.8 299.52c0 0 0 0 0-2.56v0l368.64-373.76 48.64-271.36c-61.44-12.8-107.52-25.6-104.96-30.72l5.12-23.040c0-5.12 61.44 0 133.12 12.8s130.56 28.16 128 35.84l-5.12 23.040c0 5.12-48.64 2.56-110.080-7.68l-48.64 271.36-15.36-40.96 230.4 519.68zM386.56 878.080c148.48-20.48 250.88-40.96 291.84-56.32-43.52-2.56-148.48 2.56-296.96 23.040-145.92 20.48-250.88 43.52-291.84 56.32 43.52 2.56 148.48-2.56 296.96-23.040zM102.4 885.76c53.76-15.36 158.72-35.84 279.040-51.2 122.88-17.92 230.4-25.6 286.72-23.040l-343.040-373.76-222.72 448zM901.12 760.32c143.36 25.6 248.32 35.84 289.28 35.84-38.4-12.8-138.24-40.96-284.16-66.56-143.36-25.6-248.32-35.84-289.28-35.84 40.96 15.36 140.8 40.96 284.16 66.56zM977.92 330.24l-345.6 350.72c56.32 2.56 158.72 15.36 276.48 35.84 120.32 23.040 225.28 46.080 276.48 64l-207.36-450.56zM1070.080 563.2c0 0 0 0 0 0v0 0c-5.12 2.56-61.44-2.56-130.56-15.36-71.68-12.8-128-25.6-128-30.72 0 0 0 0 0 0h-2.56l163.84-166.4 97.28 212.48c0 0 0 0 0 0zM486.4 632.32c-2.56 5.12-58.88 15.36-130.56 25.6s-130.56 15.36-133.12 10.24c0 0 0 0 0 0h-2.56l104.96-209.92 161.28 174.080c0 0 2.56 0 0 0 2.56 0 0 0 0 0v0 0zM263.68 145.92c-61.44 7.68-110.080 10.24-112.64 5.12l-2.56-23.040c0-5.12 58.88-20.48 133.12-30.72s135.68-12.8 135.68-7.68l2.56 23.040c0 5.12-46.080 17.92-110.080 25.6l38.4 279.040-28.16-30.72-17.92 35.84-38.4-276.48z" />
<glyph unicode="&#xe80d;" glyph-name="college" data-tags="college, graduation cap" horiz-adv-x="1479" d="M1378.987 674.702l-648.533-204.8c-2.276 0-4.551 0-6.827 0s-4.551 0-6.827 0l-377.742 120.604c-34.133-25.031-56.889-91.022-61.44-168.391 22.756-13.653 36.409-36.409 36.409-63.716 0-25.031-13.653-47.787-34.133-61.44l34.133-250.311c0-4.551-2.276-11.378-4.551-13.653-4.551-4.551-9.102-6.827-13.653-6.827h-111.502c-4.551 0-11.378 2.276-13.653 6.827-4.551 4.551-4.551 9.102-4.551 13.653l34.133 250.311c-20.48 13.653-34.133 36.409-34.133 61.44 0 27.307 15.929 52.338 38.684 63.716 4.551 68.267 20.48 141.084 56.889 191.147l-193.422 61.44c-6.827 2.276-13.653 9.102-13.653 18.204s4.551 15.929 13.653 18.204l648.533 204.8c2.276 0 4.551 0 6.827 0s4.551 0 6.827 0l648.533-204.8c6.827-2.276 13.653-9.102 13.653-18.204-2.276-9.102-6.827-15.929-13.653-18.204zM1094.542 319.716c4.551-81.92-166.116-147.911-370.916-147.911s-375.467 65.991-370.916 147.911l11.378 184.32 332.231-104.676c9.102-2.276 18.204-4.551 27.307-4.551s18.204 2.276 27.307 4.551l332.231 104.676 11.378-184.32z" />
<glyph unicode="&#xe80e;" glyph-name="gift-package" data-tags="gift" horiz-adv-x="910" d="M555.236 711.111c161.564 18.204 166.116 131.982 106.951 182.044-72.818 61.44-154.738-93.298-184.32-157.013-2.276 0-4.551 2.276-9.102 2.276h-13.653c-2.276 0-4.551 0-6.827-2.276-29.582 63.716-113.778 220.729-184.32 157.013-59.164-50.062-52.338-163.84 106.951-182.044h-268.516v-175.218h11.378v-543.858h698.596v543.858h9.102v175.218h-266.24zM621.227 845.369c45.511-40.96 34.133-136.533-127.431-129.707 0 4.551-2.276 6.827-4.551 11.378 15.929 38.684 79.644 166.116 131.982 118.329zM302.649 845.369c52.338 45.511 116.053-79.644 131.982-118.329-2.276-2.276-4.551-6.827-6.827-11.378-161.564-6.827-172.942 91.022-125.156 129.707zM769.138 32.996h-250.311v502.898h-116.053v-502.898h-250.311v502.898h243.484v175.218h127.431v-175.218h243.484v-502.898z" />
<glyph unicode="&#xe80f;" glyph-name="healthcare" data-tags="health care" horiz-adv-x="910" d="M789.618 465.351v-227.556c0-122.88-116.053-223.004-259.413-223.004s-259.413 100.124-259.413 223.004v77.369c-125.156 15.929-223.004 109.227-223.004 220.729v295.822c0 20.48 15.929 36.409 36.409 36.409 4.551 0 6.827 0 9.102-2.276 13.653 22.756 38.684 38.684 65.991 38.684 40.96 0 75.093-31.858 75.093-75.093 0-40.96-31.858-75.093-75.093-75.093-13.653 0-25.031 4.551-36.409 11.378v-232.107c0-81.92 84.196-147.911 184.32-147.911 102.4 0 184.32 65.991 184.32 147.911v232.107c-11.378-6.827-22.756-11.378-36.409-11.378-40.96 0-75.093 31.858-75.093 75.093 2.276 40.96 34.133 75.093 75.093 75.093 27.307 0 52.338-15.929 63.716-38.684 2.276 0 6.827 2.276 9.102 2.276 20.48 0 36.409-15.929 36.409-36.409v-295.822c0-111.502-95.573-204.8-223.004-220.729v-77.369c0-81.92 84.196-147.911 184.32-147.911 102.4 0 184.32 65.991 184.32 147.911v227.556c-43.236 15.929-75.093 56.889-75.093 104.676 0 61.44 50.062 111.502 111.502 111.502s111.502-50.062 111.502-111.502c4.551-47.787-25.031-88.747-68.267-104.676zM750.933 608.711c-20.48 0-36.409-15.929-36.409-36.409s15.929-36.409 36.409-36.409c20.48 0 36.409 15.929 36.409 36.409 2.276 18.204-15.929 36.409-36.409 36.409z" />
<glyph unicode="&#xe810;" glyph-name="tools" data-tags="Home tools" d="M198.656 808.96l57.344-57.344c10.24-10.24 10.24-24.576 0-34.816l-34.816-34.816c-10.24-10.24-24.576-10.24-34.816 0l-57.344 57.344c-16.384-38.912-12.288-83.968 16.384-112.64s71.68-34.816 110.592-20.48l57.344-57.344c6.144 10.24 10.24 16.384 12.288 20.48v2.048c14.336 22.528 28.672 43.008 43.008 67.584l-40.96 43.008c14.336 38.912 10.24 81.92-18.432 110.592-26.624 26.624-69.632 32.768-110.592 16.384zM462.848 399.36l-112.64 114.688 59.392 88.064 124.928-126.976c40.96 18.432 86.016 12.288 114.688-18.432 28.672-28.672 34.816-73.728 16.384-112.64l-57.344 57.344c-10.24 10.24-24.576 10.24-34.816 0l-34.816-34.816c-10.24-10.24-10.24-24.576 0-34.816l57.344-57.344c-38.912-16.384-83.968-10.24-112.64 18.432-26.624 28.672-32.768 69.632-20.48 106.496zM264.192 405.504c-188.416-247.808-145.408-286.72 14.336-8.192 22.528 40.96 8.192 36.864-14.336 8.192zM231.424 432.128c-188.416-249.856-147.456-290.816 12.288-12.288 20.48 34.816 14.336 45.056-12.288 12.288zM294.912 499.712c43.008 65.536 86.016 131.072 129.024 196.608 10.24 14.336 14.336 30.72 18.432 36.864 8.192 10.24 16.384 20.48 24.576 30.72 8.192-4.096 16.384-10.24 22.528-14.336-6.144-12.288-12.288-22.528-18.432-34.816-10.24-20.48-14.336-16.384-26.624-34.816l-129.024-196.608h2.048c2.048-2.048 2.048-4.096 0-8.192l-8.192-12.288 4.096-2.048c4.096-2.048 2.048-6.144 0-8.192s-2.048-6.144-4.096-8.192c0-4.096-2.048-4.096-8.192-2.048 4.096-12.288 2.048-26.624-4.096-36.864l-124.928-200.704c-12.288-20.48-40.96-26.624-61.44-14.336v0c-20.48 12.288-26.624 40.96-14.336 61.44l124.928 200.704c8.192 14.336 22.528 20.48 38.912 20.48 0 0 0 0-2.048 2.048-4.096 4.096-2.048 4.096 0 8.192 2.048 2.048 4.096 4.096 6.144 6.144 4.096 4.096 6.144 4.096 10.24 0l2.048-2.048c4.096 4.096 6.144 8.192 10.24 14.336 4.096 0 4.096 0 8.192-2.048v0zM970.752 876.544c-14.336 0-26.624 0-40.96 0-6.144 0-6.144 0-10.24-4.096-12.288-10.24-32.768-16.384-47.104-4.096-6.144 6.144-12.288 12.288-16.384 16.384-22.528 26.624-57.344 24.576-88.064 20.48-69.632-10.24-126.976-43.008-180.224-79.872-8.192-6.144-20.48-20.48 0-12.288 10.24 4.096 20.48 8.192 32.768 10.24 22.528 8.192 45.056 14.336 67.584 16.384 8.192 2.048 24.576 4.096 32.768 2.048 26.624-6.144 22.528-47.104 24.576-71.68 6.144 0 10.24 0 16.384 0v-686.080h-10.24c-8.192 0-16.384-6.144-16.384-16.384v-18.432c0-8.192 6.144-16.384 16.384-16.384h88.064c8.192 0 16.384 6.144 16.384 16.384v18.432c0 8.192-6.144 16.384-16.384 16.384h-8.192v686.080c4.096 0 8.192 0 12.288 0 14.336 30.72 36.864 67.584 75.776 43.008 8.192-4.096 6.144-6.144 16.384-6.144 12.288 0 24.576 0 34.816 0 6.144 0 10.24 2.048 10.24 8.192 0 16.384 0 32.768 0 49.152-2.048 8.192-4.096 12.288-10.24 12.288z" />
<glyph unicode="&#xe811;" glyph-name="leave-bequest" data-tags="Leave Bequest" horiz-adv-x="1152" d="M168.96 156.16h250.88v-48.64h-250.88v48.64zM168.96 235.52h250.88v-48.64h-250.88v48.64zM168.96 317.44h250.88v-48.64h-250.88v48.64zM168.96 391.68h250.88v-48.64h-250.88v48.64zM168.96 471.040h250.88v-48.64h-250.88v48.64zM1064.96 849.92l-12.8 10.24-5.12 2.56h-2.56l2.56-2.56c0 0-2.56 2.56-5.12 2.56s-5.12 0-10.24 0l5.12 2.56h-12.8l-2.56-2.56-5.12-2.56c0 0-2.56 0-5.12-2.56h-2.56l61.44-46.080v23.040l-5.12 15.36zM1008.64 855.040v0h-5.12v-2.56l-48.64-58.88-122.88-153.6v40.96l104.96 128 12.8-15.36 51.2 61.44-43.52 7.68-28.16-35.84 7.68 10.24-12.8-17.92 5.12-5.12-23.040-28.16-43.52-51.2h-2.56l-2.56-5.12-5.12-5.12v-2.56l-20.48-23.040v158.72h-529.92l-243.2-215.040-5.12-632.32h775.68l2.56 471.040 5.12 5.12 51.2 66.56 15.36 17.92 5.12 5.12 61.44 79.36 51.2 76.8v5.12h2.56l5.12 10.24 5.12 7.68 2.56 2.56 33.28 51.2v2.56l-61.44 43.52zM107.52 69.12l2.56 545.28 17.92 17.92c25.6-7.68 53.76-25.6 64-33.28 23.040-20.48 35.84-48.64 43.52-74.24 97.28 74.24 122.88 186.88 87.040 273.92h453.12v-166.4l-7.68-7.68v-2.56l-5.12-5.12v2.56l-2.56-2.56-33.28-40.96-2.56-2.56 5.12-10.24 15.36-25.6 5.12 7.68 2.56 2.56-15.36 15.36 40.96 48.64v-43.52l-2.56-2.56-12.8-15.36-2.56-2.56-5.12-7.68-81.92-99.84-7.68-7.68-10.24-12.8 7.68-5.12c25.6-12.8 46.080-30.72 61.44-53.76v0l28.16 30.72 23.040 25.6v-345.6h-668.16zM744.96 371.2l2.56 5.12zM860.16 734.72l-2.56-2.56zM657.92 409.6l-10.24 5.12-2.56-2.56c-92.16-110.080-143.36-202.24-153.6-273.92l10.24 7.68 15.36 15.36 33.28 25.6 58.88 51.2 46.080 46.080 2.56 5.12 35.84 38.4 20.48 23.040 2.56 2.56c-10.24 25.6-30.72 46.080-58.88 56.32z" />
<glyph unicode="&#xe812;" glyph-name="sailboat" data-tags="Major Purchase" horiz-adv-x="1138" d="M605.298 909.084c-13.653 0-25.031-11.378-25.031-25.031v-694.044h50.062v694.044c0 13.653-11.378 25.031-25.031 25.031v0zM84.196 146.773l50.062-52.338c13.653-13.653 38.684-25.031 59.164-27.307 104.676-6.827 427.804-29.582 621.227-38.684 6.827 0 13.653 0 18.204 0 152.462 0 211.627 72.818 236.658 116.053 9.102 15.929-2.276 31.858-22.756 31.858v0l-953.458-4.551c-18.204 0-22.756-11.378-9.102-25.031v0zM971.662 208.213c6.827 0 11.378 2.276 11.378 4.551 2.276 2.276 0 6.827-2.276 13.653l-323.129 589.369c0 0 0 2.276 0 2.276s0-2.276 0-2.276v-580.267c0-13.653 11.378-27.307 25.031-27.307h288.996zM532.48 911.36l-391.396-680.391c-9.102-15.929-2.276-29.582 18.204-29.582h357.262c18.204 0 34.133 15.929 34.133 34.133v671.289c0 20.48-9.102 20.48-18.204 4.551v0z" />
<glyph unicode="&#xe813;" glyph-name="house" data-tags="New Home" horiz-adv-x="1229" d="M1120.256 380.928c-4.096-4.096-8.192-6.144-14.336-8.192 0 0-2.048 0-2.048 0-6.144 0-10.24 2.048-14.336 4.096l-479.232 401.408-479.232-399.36c-4.096-4.096-10.24-6.144-16.384-4.096-6.144 0-10.24 4.096-14.336 8.192l-43.008 51.2c-8.192 8.192-6.144 22.528 2.048 30.72l497.664 413.696c28.672 24.576 75.776 24.576 104.448 0l169.984-141.312v135.168c0 12.288 10.24 22.528 22.528 22.528h133.12c12.288 0 22.528-10.24 22.528-22.528v-282.624l151.552-126.976c8.192-8.192 10.24-22.528 2.048-30.72l-43.008-51.2zM1009.664 51.2c0-24.576-20.48-45.056-45.056-45.056h-266.24v266.24h-178.176v-266.24h-266.24c-24.576 0-45.056 20.48-45.056 45.056v333.824c0 2.048 0 2.048 0 4.096l397.312 327.68 397.312-327.68c0-2.048 0-2.048 0-4.096v-333.824z" />
<glyph unicode="&#xe814;" glyph-name="questionmark-circle" data-tags="question mark" d="M522.24 26.624c-247.808 0-448.512 200.704-448.512 448.512s200.704 448.512 448.512 448.512c247.808 0 448.512-200.704 448.512-448.512s-200.704-448.512-448.512-448.512zM534.528 774.144c-96.256 0-165.888-40.96-217.088-124.928-6.144-8.192-2.048-18.432 4.096-24.576l77.824-59.392c2.048-2.048 6.144-4.096 10.24-4.096 6.144 0 10.24 2.048 14.336 6.144 26.624 34.816 38.912 45.056 51.2 53.248 10.24 6.144 28.672 14.336 51.2 14.336 36.864 0 71.68-24.576 71.68-49.152 0-30.72-16.384-45.056-51.2-61.44-40.96-18.432-98.304-67.584-98.304-124.928v-20.48c0-10.24 8.192-18.432 18.432-18.432h112.64c10.24 0 18.432 8.192 18.432 18.432 0 14.336 16.384 43.008 45.056 57.344 45.056 24.576 104.448 59.392 104.448 147.456 0 110.592-112.64 190.464-212.992 190.464zM598.016 307.2c0 10.24-8.192 18.432-18.432 18.432h-112.64c-10.24 0-18.432-8.192-18.432-18.432v-112.64c0-10.24 8.192-18.432 18.432-18.432h112.64c10.24 0 18.432 8.192 18.432 18.432v112.64z" />
<glyph unicode="&#xe815;" glyph-name="school-book" data-tags="Private School, pencil and book" horiz-adv-x="1280" d="M1239.040 512l-130.56-432.64c-12.8-40.96-53.76-71.68-94.72-71.68h-442.88c-48.64 0-99.84 38.4-117.76 89.6-7.68 20.48-7.68 43.52 0 61.44 0 10.24 2.56 17.92 2.56 30.72 0 7.68-5.12 12.8-2.56 20.48 2.56 10.24 12.8 20.48 20.48 33.28 15.36 23.040 30.72 61.44 35.84 87.040 2.56 10.24-2.56 20.48 0 28.16 2.56 10.24 12.8 15.36 15.36 25.6 12.8 23.040 30.72 64 33.28 87.040 0 10.24-5.12 20.48 0 28.16 2.56 10.24 12.8 15.36 20.48 25.6 10.24 15.36 30.72 61.44 33.28 87.040 0 7.68-2.56 15.36-2.56 25.6 2.56 10.24 12.8 17.92 20.48 30.72 20.48 30.72 23.040 94.72 84.48 76.8v-2.56c7.68 2.56 15.36 5.12 25.6 5.12h363.52c23.040 0 43.52-10.24 53.76-25.6 12.8-17.92 15.36-40.96 7.68-61.44l-130.56-432.64c-23.040-74.24-35.84-89.6-94.72-89.6h-419.84c-5.12 0-12.8-2.56-17.92-7.68-2.56-5.12-5.12-10.24 0-20.48 10.24-28.16 43.52-33.28 69.12-33.28h440.32c17.92 0 38.4 10.24 43.52 28.16l143.36 471.040c2.56 10.24 2.56 17.92 2.56 28.16 10.24-5.12 20.48-10.24 28.16-20.48 12.8-25.6 15.36-48.64 10.24-71.68zM691.2 435.2h291.84c7.68 0 17.92 7.68 20.48 15.36l10.24 30.72c2.56 7.68-2.56 15.36-10.24 15.36h-291.84c-7.68 0-17.92-7.68-20.48-15.36l-10.24-30.72c-2.56-7.68 2.56-15.36 10.24-15.36zM732.16 558.080h291.84c7.68 0 17.92 7.68 20.48 15.36l10.24 30.72c2.56 7.68-2.56 15.36-10.24 15.36h-294.4c-7.68 0-17.92-7.68-20.48-15.36l-10.24-30.72c-2.56-7.68 2.56-15.36 12.8-15.36zM532.48 614.4l-314.88-314.88h-158.72v158.72l317.44 314.88 156.16-158.72zM232.96 381.44l-89.6 89.6-35.84-35.84v-40.96h48.64v-48.64h40.96l35.84 35.84zM389.12 706.56c-2.56 0-5.12 0-7.68-2.56l-204.8-204.8c-2.56-2.56-2.56-5.12-2.56-7.68 0-5.12 2.56-7.68 7.68-7.68 2.56 0 5.12 0 7.68 2.56l204.8 204.8c2.56 2.56 2.56 5.12 2.56 7.68 0 5.12-5.12 7.68-7.68 7.68zM622.080 701.44l-64-64-158.72 158.72 64 61.44c7.68 10.24 20.48 15.36 33.28 15.36s25.6-5.12 33.28-15.36l89.6-89.6c7.68-10.24 12.8-20.48 12.8-33.28 2.56-12.8-2.56-23.040-10.24-33.28z" />
<glyph unicode="&#xe816;" glyph-name="healthcare2" data-tags="Provide Care" horiz-adv-x="1126" d="M806.912 907.264c-100.352 0-192.512-77.824-237.568-122.88-45.056 45.056-139.264 122.88-237.568 122.88-169.984 0-272.384-100.352-272.384-266.24 0-137.216 124.928-251.904 129.024-256l356.352-344.064c6.144-6.144 16.384-10.24 24.576-10.24s18.432 4.096 24.576 10.24l356.352 342.016c6.144 6.144 131.072 120.832 131.072 256-2.048 167.936-102.4 268.288-274.432 268.288zM786.432 442.368c0-14.336-12.288-26.624-26.624-26.624h-137.216v-137.216c0-14.336-12.288-26.624-26.624-26.624h-55.296c-14.336 0-26.624 12.288-26.624 26.624v137.216h-137.216c-14.336 0-26.624 12.288-26.624 26.624v55.296c0 14.336 12.288 26.624 26.624 26.624h137.216v137.216c0 14.336 12.288 26.624 26.624 26.624h55.296c14.336 0 26.624-12.288 26.624-26.624v-137.216h137.216c14.336 0 26.624-12.288 26.624-26.624v-55.296z" />
<glyph unicode="&#xe817;" glyph-name="business-briefcase" data-tags="Start Business" horiz-adv-x="1152" d="M1072.64 432.64h-998.4v212.48c0 48.64 40.96 89.6 89.6 89.6h197.12v89.6c0 30.72 23.040 53.76 53.76 53.76h320c30.72 0 53.76-23.040 53.76-53.76v-89.6h197.12c48.64 0 89.6-40.96 89.6-89.6v-212.48zM1072.64 112.64c0-48.64-40.96-89.6-89.6-89.6h-819.2c-48.64 0-89.6 40.96-89.6 89.6v266.24h373.76v-89.6c0-20.48 15.36-35.84 35.84-35.84h179.2c20.48 0 35.84 15.36 35.84 35.84v89.6h373.76v-266.24zM716.8 737.28v69.12h-286.72v-71.68h286.72zM645.12 309.76h-143.36v71.68h143.36v-71.68z" />
<glyph unicode="&#xe818;" glyph-name="travel-plane" data-tags="Travel plane" d="M954.368 733.184c-14.336 22.528-38.912 20.48-61.44 16.384-63.488-6.144-120.832-28.672-176.128-57.344-8.192-4.096-18.432-8.192-26.624-12.288-10.24-4.096-18.432-8.192-28.672-14.336-18.432-14.336-34.816-10.24-51.2 4.096-90.112 73.728-180.224 141.312-264.192 215.040-61.44 53.248-43.008 43.008-104.448 10.24-20.48-10.24-20.48-20.48-10.24-38.912 43.008-71.68 92.16-139.264 139.264-210.944 26.624-38.912 51.2-79.872 71.68-122.88-8.192-6.144-14.336-12.288-22.528-18.432-30.72-14.336-57.344-32.768-83.968-53.248v0c-10.24-6.144-20.48-10.24-30.72-16.384-2.048 0-4.096-2.048-6.144-4.096-18.432-10.24-32.768-2.048-49.152 6.144-34.816 14.336-71.68 30.72-104.448 51.2-20.48 12.288-38.912 14.336-61.44 4.096-14.336-8.192-14.336-10.24-4.096-20.48 38.912-36.864 77.824-73.728 116.736-110.592 8.192-8.192 14.336-14.336 2.048-24.576-12.288-12.288-8.192-26.624 0-38.912s18.432-24.576 34.816-18.432c14.336 6.144 16.384-2.048 18.432-14.336 12.288-53.248 24.576-106.496 36.864-161.792 2.048-12.288 4.096-14.336 16.384-6.144 20.48 14.336 30.72 28.672 30.72 55.296 2.048 53.248 2.048 106.496 16.384 157.696 0 0 2.048 0 2.048 0 4.096 2.048 8.192 4.096 14.336 8.192 22.528 4.096 40.96 18.432 59.392 30.72 22.528 12.288 47.104 24.576 69.632 38.912 12.288 6.144 22.528 8.192 28.672-8.192 10.24-20.48 22.528-38.912 32.768-59.392 43.008-83.968 81.92-169.984 124.928-253.952 28.672-55.296 16.384-51.2 69.632-20.48 34.816 18.432 32.768 20.48 26.624 59.392-12.288 79.872-28.672 159.744-38.912 241.664-4.096 34.816-6.144 71.68-18.432 106.496-8.192 24.576-4.096 43.008 18.432 55.296 49.152 30.72 96.256 61.44 139.264 100.352 6.144 6.144 12.288 10.24 18.432 16.384 12.288 14.336 26.624 28.672 36.864 45.056 16.384 18.432 32.768 40.96 18.432 63.488z" />
<glyph unicode="&#xe819;" glyph-name="wedding-rings" data-tags="Wedding rings" horiz-adv-x="1126" d="M804.864 866.304l-36.864 53.248-96.256-4.096-28.672-59.392zM653.312 913.408l-61.44-4.096-53.248-59.392 86.016 6.144zM907.264 872.448l-59.392 53.248-61.44-4.096 36.864-55.296zM679.936 739.328l-55.296 100.352-90.112-6.144 110.592-96.256zM698.368 739.328l65.536 4.096 43.008 106.496-163.84-10.24zM913.408 856.064l-90.112-4.096-43.008-106.496 36.864 2.048zM1091.584 387.072c-10.24 163.84-135.168 294.912-292.864 315.392l24.576 28.672-184.32-12.288 28.672-24.576c-47.104-12.288-90.112-34.816-124.928-63.488-36.864 22.528-79.872 36.864-122.88 43.008 0 0-2.048 0-2.048 0s-374.784 32.768-382.976-356.352c12.288-186.368 172.032-327.68 358.4-317.44 71.68 4.096 137.216 30.72 188.416 73.728 55.296-32.768 122.88-49.152 190.464-45.056 188.416 10.24 331.776 172.032 319.488 358.4zM489.472 350.208c-4.096 69.632 20.48 135.168 61.44 186.368 49.152-45.056 83.968-108.544 88.064-182.272 4.096-69.632-20.48-135.168-61.44-186.368-51.2 45.056-83.968 108.544-88.064 182.272zM389.12 73.728c-145.408-8.192-272.384 102.4-280.576 247.808s102.4 272.384 247.808 280.576c47.104 2.048 92.16-6.144 133.12-26.624-51.2-63.488-79.872-145.408-73.728-231.424 6.144-90.112 45.056-167.936 106.496-225.28-38.912-26.624-83.968-43.008-133.12-45.056zM770.048 100.352c-47.104-2.048-92.16 6.144-133.12 26.624 51.2 63.488 79.872 145.408 73.728 231.424-6.144 90.112-45.056 167.936-106.496 225.28 38.912 26.624 83.968 43.008 133.12 45.056 145.408 8.192 272.384-102.4 280.576-249.856 10.24-143.36-102.4-270.336-247.808-278.528z" />
<glyph unicode="&#xe81a;" glyph-name="today" data-tags="today" d="M810.667 844.8h-42.667v85.333h-85.333v-85.333h-341.333v85.333h-85.333v-85.333h-42.667c-47.147 0-84.907-38.187-84.907-85.333l-0.427-597.333c0-47.147 38.187-85.333 85.333-85.333h597.333c47.147 0 85.333 38.187 85.333 85.333v597.333c0 47.147-38.187 85.333-85.333 85.333zM810.667 162.133h-597.333v469.333h597.333v-469.333zM298.667 546.133h213.333v-213.333h-213.333z" />
<glyph unicode="&#xe900;" glyph-name="supersolve" data-tags="SuperSolve, supersolve bolt" d="M679.936 845.824c-55.296-98.304-118.784-208.896-182.272-323.584 96.256 0 192.512 0 290.816 0-143.36-151.552-284.672-299.008-425.984-444.416 0 0-2.048 2.048-2.048 2.048 55.296 108.544 108.544 217.088 163.84 327.68-96.256 0-190.464 0-286.72 0 151.552 149.504 301.056 299.008 442.368 438.272z" />
<glyph unicode="&#xe901;" glyph-name="sortable" data-tags="sortable" horiz-adv-x="746" d="M0 753.015h745.938v-159.844h-745.938v159.844zM0 539.889h745.938v-159.844h-745.938v159.844zM0 326.764h745.938v-159.844h-745.938v159.844zM213.125 108.644l159.844-159.844 159.844 159.844h-319.688zM532.813 812.956l-159.844 159.844-159.844-159.844h319.688z" />
<glyph unicode="&#xe917;" glyph-name="spades" data-tags="spades, cards, poker" d="M817.57 624.65c-193.566 143.858-260.266 259.018-305.566 348.148v0c-0.004 0-0.004 0.002-0.004 0.002v-0.002c-45.296-89.13-112-204.292-305.566-348.148-330.036-245.286-19.376-587.668 253.758-399.224-17.796-116.93-78.53-202.172-140.208-238.882v-37.744h384.032v37.74c-61.682 36.708-122.41 121.954-140.212 238.884 273.136-188.446 583.8 153.94 253.766 399.226z" />
<glyph unicode="&#xe918;" glyph-name="clubs" data-tags="clubs, cards, poker" d="M786.832 580.028c-59.032 0-112.086-24.596-149.852-64.694-15.996-16.984-43.762-37.112-73.8-54.81 14.11 53.868 58.676 121.7 89.628 151.456 39.64 38.17 63.984 91.83 63.984 151.5 0.006 114.894-91.476 208.096-204.788 209.32-113.32-1.222-204.796-94.426-204.796-209.318 0-59.672 24.344-113.33 63.986-151.5 30.954-29.756 75.52-97.588 89.628-151.456-30.042 17.7-57.806 37.826-73.8 54.81-37.768 40.098-90.82 64.694-149.85 64.694-114.386 0-207.080-93.664-207.080-209.328 0-115.638 92.692-209.338 207.080-209.338 59.042 0 112.082 25.356 149.85 65.452 16.804 17.872 46.444 40.138 78.292 58.632-3.002-147.692-73.532-256.168-145.318-298.906v-37.742h384.014v37.74c-71.792 42.736-142.32 151.216-145.32 298.906 31.852-18.494 61.488-40.768 78.292-58.632 37.766-40.094 90.808-65.452 149.852-65.452 114.386 0 207.078 93.7 207.078 209.338-0.002 115.664-92.692 209.328-207.080 209.328z" />
<glyph unicode="&#xe919;" glyph-name="diamonds" data-tags="diamonds, cards, poker" d="M512 972.8l-320-512 320-512 320 512z" />
<glyph unicode="&#xe923;" glyph-name="profile" data-tags="profile, file, document, page, user, paper" d="M864 972.8h-768c-52.8 0-96-43.2-96-96v-832c0-52.8 43.2-96 96-96h768c52.8 0 96 43.2 96 96v832c0 52.8-43.2 96-96 96zM832 76.8h-704v768h704v-768zM256 396.8h448v-64h-448zM256 268.8h448v-64h-448zM320 684.8c0 53.019 42.981 96 96 96s96-42.981 96-96c0-53.019-42.981-96-96-96s-96 42.981-96 96zM480 588.8h-128c-52.8 0-96-28.8-96-64v-64h320v64c0 35.2-43.2 64-96 64z" />
<glyph unicode="&#xe93b;" glyph-name="coin-dollar" data-tags="coin-dollar, money, cash, currency-dollar" d="M480 908.8c-265.096 0-480-214.904-480-480 0-265.098 214.904-480 480-480 265.098 0 480 214.902 480 480 0 265.096-214.902 480-480 480zM480 44.8c-212.078 0-384 171.922-384 384s171.922 384 384 384c212.078 0 384-171.922 384-384s-171.922-384-384-384zM512 460.8v128h128v64h-128v64h-64v-64h-128v-256h128v-128h-128v-64h128v-64h64v64h128.002l-0.002 256h-128zM448 460.8h-64v128h64v-128zM576.002 268.8h-64.002v128h64.002v-128z" />
<glyph unicode="&#xe940;" glyph-name="calculator" data-tags="calculator, compute, math, arithmetic, sum" d="M384 908.8h-320c-35.2 0-64-28.8-64-64v-320c0-35.2 28.796-64 64-64h320c35.2 0 64 28.8 64 64v320c0 35.2-28.8 64-64 64zM384 652.8h-320v64h320v-64zM896 908.8h-320c-35.204 0-64-28.8-64-64v-832c0-35.2 28.796-64 64-64h320c35.2 0 64 28.8 64 64v832c0 35.2-28.8 64-64 64zM896 332.8h-320v64h320v-64zM896 524.8h-320v64h320v-64zM384 396.8h-320c-35.2 0-64-28.8-64-64v-320c0-35.2 28.796-64 64-64h320c35.2 0 64 28.8 64 64v320c0 35.2-28.8 64-64 64zM384 140.8h-128v-128h-64v128h-128v64h128v128h64v-128h128v-64z" />
<glyph unicode="&#xe944;" glyph-name="address-book" data-tags="address-book, contact, book, contacts" d="M192 972.8v-1024h768v1024h-768zM576 716.47c70.51 0 127.67-57.16 127.67-127.67s-57.16-127.67-127.67-127.67-127.67 57.16-127.67 127.67 57.16 127.67 127.67 127.67v0zM768 204.8h-384v64c0 70.696 57.306 128 128 128v0h128c70.696 0 128-57.304 128-128v-64zM64 908.8h96v-192h-96v192zM64 652.8h96v-192h-96v192zM64 396.8h96v-192h-96v192zM64 140.8h96v-192h-96v192z" />
<glyph unicode="&#xe973;" glyph-name="user-plus" data-tags="user-plus, user, user-add, profile, avatar, person, member" d="M384 236.8c0 151.234 95.874 280.486 230.032 330.2 16.28 36.538 25.968 77.164 25.968 117.8 0 159.058 0 288-192 288s-192-128.942-192-288c0-99.060 57.502-198.104 128-237.832v-52.78c-217.102-17.748-384-124.42-384-253.388h397.306c-8.664 30.53-13.306 62.732-13.306 96zM736 524.8c-159.058 0-288-128.942-288-288s128.942-288 288-288c159.056 0 288 128.942 288 288s-128.942 288-288 288zM896 204.8h-128v-128h-64v128h-128v64h128v128h64v-128h128v-64z" />
<glyph unicode="&#xe974;" glyph-name="user-minus" data-tags="user-minus, user, user-remove, profile, avatar, person, member" d="M384 236.8c0 151.234 95.874 280.486 230.032 330.2 16.28 36.538 25.968 77.164 25.968 117.8 0 159.058 0 288-192 288s-192-128.942-192-288c0-99.060 57.502-198.104 128-237.832v-52.78c-217.102-17.748-384-124.42-384-253.388h397.306c-8.664 30.53-13.306 62.732-13.306 96zM736 524.8c-159.058 0-288-128.942-288-288s128.942-288 288-288c159.056 0 288 128.942 288 288s-128.942 288-288 288zM896 204.8h-320v64h320v-64z" />
<glyph unicode="&#xe975;" glyph-name="user-check" data-tags="user-check, user, user-tick, profile, avatar, person, member" d="M960 364.8l-288-288-96 96-64-64 160-160 352 352zM448 204.8h320v115.128c-67.22 39.2-156.308 66.11-256 74.26v52.78c70.498 39.728 128 138.772 128 237.832 0 159.058 0 288-192 288s-192-128.942-192-288c0-99.060 57.502-198.104 128-237.832v-52.78c-217.102-17.748-384-124.42-384-253.388h448v64z" />
<glyph unicode="" glyph-name="user-check" data-tags="user-check, user, user-tick, profile, avatar, person, member" d="M960 364.8l-288-288-96 96-64-64 160-160 352 352zM448 204.8h320v115.128c-67.22 39.2-156.308 66.11-256 74.26v52.78c70.498 39.728 128 138.772 128 237.832 0 159.058 0 288-192 288s-192-128.942-192-288c0-99.060 57.502-198.104 128-237.832v-52.78c-217.102-17.748-384-124.42-384-253.388h448v64z" />
<glyph unicode="wine glasses celebration" glyph-name="celebration-wine" data-tags="Celebration, wine glasses" horiz-adv-x="1280" d="M1218.56 801.28c0 0 0 0 0 0-2.56 15.36-145.92 2.56-320-28.16-148.48-28.16-271.36-58.88-302.080-76.8l110.080 120.32c0 0 0 0 0 0 2.56 15.36-140.8 46.080-320 71.68-176.64 25.6-322.56 33.28-325.12 17.92 0 0 0-2.56 0-2.56v0l258.56-514.56 268.8 299.52c0 0 0 0 0-2.56v0l368.64-373.76 48.64-271.36c-61.44-12.8-107.52-25.6-104.96-30.72l5.12-23.040c0-5.12 61.44 0 133.12 12.8s130.56 28.16 128 35.84l-5.12 23.040c0 5.12-48.64 2.56-110.080-7.68l-48.64 271.36-15.36-40.96 230.4 519.68zM386.56 878.080c148.48-20.48 250.88-40.96 291.84-56.32-43.52-2.56-148.48 2.56-296.96 23.040-145.92 20.48-250.88 43.52-291.84 56.32 43.52 2.56 148.48-2.56 296.96-23.040zM102.4 885.76c53.76-15.36 158.72-35.84 279.040-51.2 122.88-17.92 230.4-25.6 286.72-23.040l-343.040-373.76-222.72 448zM901.12 760.32c143.36 25.6 248.32 35.84 289.28 35.84-38.4-12.8-138.24-40.96-284.16-66.56-143.36-25.6-248.32-35.84-289.28-35.84 40.96 15.36 140.8 40.96 284.16 66.56zM977.92 330.24l-345.6 350.72c56.32 2.56 158.72 15.36 276.48 35.84 120.32 23.040 225.28 46.080 276.48 64l-207.36-450.56zM1070.080 563.2c0 0 0 0 0 0v0 0c-5.12 2.56-61.44-2.56-130.56-15.36-71.68-12.8-128-25.6-128-30.72 0 0 0 0 0 0h-2.56l163.84-166.4 97.28 212.48c0 0 0 0 0 0zM486.4 632.32c-2.56 5.12-58.88 15.36-130.56 25.6s-130.56 15.36-133.12 10.24c0 0 0 0 0 0h-2.56l104.96-209.92 161.28 174.080c0 0 2.56 0 0 0 2.56 0 0 0 0 0v0 0zM263.68 145.92c-61.44 7.68-110.080 10.24-112.64 5.12l-2.56-23.040c0-5.12 58.88-20.48 133.12-30.72s135.68-12.8 135.68-7.68l2.56 23.040c0 5.12-46.080 17.92-110.080 25.6l38.4 279.040-28.16-30.72-17.92 35.84-38.4-276.48z" />
<glyph unicode="whole piggy bank" glyph-name="piggy-bank" data-tags="pig, money, bank" d="M789.568 271.712c0 0 106.56 72.896 106.56 216.672 0 214.016-226.816 293.152-348.768 291.040-121.984-2.144-158.336-34.24-158.336-34.24s-41.504 30.176-85.504 55.456c-33.664 13.12-41.472 15.008-64.864 7.488-18.72 0-6.944-31.168 0.576-42.4 7.456-11.232 43.712-73.28 43.712-73.28s-76.096-78.368-81.728-129.888c0 0.928-35.84 0.288-55.488 0.288s-17.792-21.408-17.792-21.408l0.544-150.848c0 0-1.216-21.408 16.608-21.408 17.792 0 55.616-0.416 55.616-0.416s53.216-77.28 86.944-91.328c0-0.928-29.152-80.096-29.152-80.096s-14.048-24.352 11.232-33.728c25.28-9.344 91.232-37.024 119.328-45.472 28.064-8.416 32.096 10.688 32.096 10.688l27.808 60.064 181.92-0.288 27.808-61.92c0 0 5.344-28.736 42.784-12.832 37.472 15.904 78.368 34.784 109.28 50.688 30.88 15.904 10.56 45.632 10.56 45.632l-31.744 61.536zM298.304 532.352c-17.056 0-30.88 13.856-30.88 30.912s13.824 30.88 30.88 30.88 30.912-13.824 30.912-30.88-13.856-30.912-30.912-30.912zM733.6 628.608c-9.856-11.68-16.288-3.072-24.224-0.736 0 0-33.632 31.2-83.040 45.76-51.168 15.040-105.024 7.776-105.024 7.776-7.936 2.336-17.568 2.592-17.632 14.848 0.416 15.136 18.784 15.264 18.56 15.776 0 0 60.608 5.6 111.328-9.312 49.888-14.656 88-46.528 88-46.528s20.384-14.048 12.032-27.584z" />
<glyph unicode="wedding rings" glyph-name="wedding-rings" data-tags="Wedding rings" horiz-adv-x="1126" d="M804.864 866.304l-36.864 53.248-96.256-4.096-28.672-59.392zM653.312 913.408l-61.44-4.096-53.248-59.392 86.016 6.144zM907.264 872.448l-59.392 53.248-61.44-4.096 36.864-55.296zM679.936 739.328l-55.296 100.352-90.112-6.144 110.592-96.256zM698.368 739.328l65.536 4.096 43.008 106.496-163.84-10.24zM913.408 856.064l-90.112-4.096-43.008-106.496 36.864 2.048zM1091.584 387.072c-10.24 163.84-135.168 294.912-292.864 315.392l24.576 28.672-184.32-12.288 28.672-24.576c-47.104-12.288-90.112-34.816-124.928-63.488-36.864 22.528-79.872 36.864-122.88 43.008 0 0-2.048 0-2.048 0s-374.784 32.768-382.976-356.352c12.288-186.368 172.032-327.68 358.4-317.44 71.68 4.096 137.216 30.72 188.416 73.728 55.296-32.768 122.88-49.152 190.464-45.056 188.416 10.24 331.776 172.032 319.488 358.4zM489.472 350.208c-4.096 69.632 20.48 135.168 61.44 186.368 49.152-45.056 83.968-108.544 88.064-182.272 4.096-69.632-20.48-135.168-61.44-186.368-51.2 45.056-83.968 108.544-88.064 182.272zM389.12 73.728c-145.408-8.192-272.384 102.4-280.576 247.808s102.4 272.384 247.808 280.576c47.104 2.048 92.16-6.144 133.12-26.624-51.2-63.488-79.872-145.408-73.728-231.424 6.144-90.112 45.056-167.936 106.496-225.28-38.912-26.624-83.968-43.008-133.12-45.056zM770.048 100.352c-47.104-2.048-92.16 6.144-133.12 26.624 51.2 63.488 79.872 145.408 73.728 231.424-6.144 90.112-45.056 167.936-106.496 225.28 38.912 26.624 83.968 43.008 133.12 45.056 145.408 8.192 272.384-102.4 280.576-249.856 10.24-143.36-102.4-270.336-247.808-278.528z" />
</font>
</defs>
</svg>
